<svg width="395" height="301" viewBox="0 0 395 301" fill="none" xmlns="http://www.w3.org/2000/svg">
<g filter="url(#filter0_d_330_362)">
<rect x="6" y="4" width="383" height="288.352" rx="20" fill="white"/>
</g>
<path d="M117.445 262.296V261.657L119.846 259.029C120.127 258.722 120.359 258.454 120.542 258.227C120.724 257.997 120.859 257.782 120.946 257.58C121.036 257.377 121.081 257.164 121.081 256.941C121.081 256.686 121.02 256.464 120.897 256.277C120.776 256.09 120.61 255.946 120.4 255.844C120.189 255.742 119.952 255.691 119.689 255.691C119.41 255.691 119.166 255.749 118.958 255.865C118.752 255.979 118.592 256.139 118.478 256.345C118.367 256.551 118.312 256.792 118.312 257.069H117.473C117.473 256.643 117.572 256.269 117.768 255.947C117.965 255.625 118.232 255.374 118.571 255.194C118.912 255.014 119.294 254.924 119.718 254.924C120.144 254.924 120.522 255.014 120.851 255.194C121.18 255.374 121.438 255.617 121.625 255.922C121.812 256.227 121.905 256.567 121.905 256.941C121.905 257.209 121.857 257.47 121.76 257.726C121.665 257.979 121.499 258.262 121.263 258.575C121.028 258.885 120.703 259.264 120.286 259.711L118.652 261.458V261.515H122.033V262.296H117.445ZM125.872 262.396C125.337 262.396 124.881 262.25 124.505 261.959C124.128 261.665 123.841 261.241 123.642 260.684C123.443 260.125 123.344 259.451 123.344 258.66C123.344 257.874 123.443 257.203 123.642 256.647C123.843 256.088 124.132 255.662 124.508 255.368C124.887 255.072 125.342 254.924 125.872 254.924C126.402 254.924 126.856 255.072 127.232 255.368C127.611 255.662 127.9 256.088 128.098 256.647C128.3 257.203 128.4 257.874 128.4 258.66C128.4 259.451 128.301 260.125 128.102 260.684C127.903 261.241 127.616 261.665 127.239 261.959C126.863 262.25 126.407 262.396 125.872 262.396ZM125.872 261.615C126.402 261.615 126.814 261.359 127.108 260.848C127.401 260.336 127.548 259.607 127.548 258.66C127.548 258.03 127.481 257.494 127.346 257.051C127.213 256.609 127.021 256.271 126.77 256.039C126.522 255.807 126.222 255.691 125.872 255.691C125.346 255.691 124.936 255.951 124.64 256.469C124.344 256.985 124.196 257.715 124.196 258.66C124.196 259.29 124.262 259.825 124.395 260.265C124.527 260.705 124.718 261.04 124.966 261.27C125.217 261.5 125.519 261.615 125.872 261.615ZM132.307 255.024V262.296H131.426V255.947H131.383L129.608 257.126V256.231L131.426 255.024H132.307ZM136.728 262.396C136.24 262.396 135.809 262.309 135.435 262.137C135.063 261.961 134.773 261.721 134.565 261.416C134.357 261.108 134.254 260.758 134.256 260.365C134.254 260.057 134.314 259.773 134.437 259.512C134.56 259.25 134.728 259.031 134.942 258.855C135.157 258.678 135.397 258.565 135.662 258.518V258.475C135.314 258.385 135.037 258.19 134.831 257.889C134.625 257.586 134.524 257.242 134.526 256.856C134.524 256.487 134.617 256.156 134.807 255.865C134.996 255.574 135.256 255.344 135.588 255.176C135.922 255.008 136.302 254.924 136.728 254.924C137.149 254.924 137.526 255.008 137.857 255.176C138.188 255.344 138.449 255.574 138.638 255.865C138.83 256.156 138.927 256.487 138.929 256.856C138.927 257.242 138.822 257.586 138.613 257.889C138.407 258.19 138.134 258.385 137.793 258.475V258.518C138.056 258.565 138.293 258.678 138.503 258.855C138.714 259.031 138.882 259.25 139.008 259.512C139.133 259.773 139.197 260.057 139.199 260.365C139.197 260.758 139.09 261.108 138.88 261.416C138.671 261.721 138.381 261.961 138.01 262.137C137.64 262.309 137.213 262.396 136.728 262.396ZM136.728 261.615C137.057 261.615 137.341 261.561 137.58 261.455C137.819 261.348 138.004 261.198 138.134 261.004C138.264 260.81 138.33 260.582 138.333 260.322C138.33 260.047 138.259 259.805 138.12 259.594C137.98 259.383 137.79 259.218 137.548 259.097C137.309 258.976 137.035 258.916 136.728 258.916C136.418 258.916 136.141 258.976 135.897 259.097C135.655 259.218 135.465 259.383 135.325 259.594C135.188 259.805 135.12 260.047 135.123 260.322C135.12 260.582 135.183 260.81 135.311 261.004C135.441 261.198 135.627 261.348 135.868 261.455C136.11 261.561 136.396 261.615 136.728 261.615ZM136.728 258.163C136.988 258.163 137.219 258.111 137.42 258.007C137.624 257.902 137.784 257.757 137.9 257.57C138.016 257.383 138.075 257.164 138.077 256.913C138.075 256.667 138.017 256.452 137.903 256.27C137.79 256.085 137.632 255.943 137.431 255.844C137.23 255.742 136.995 255.691 136.728 255.691C136.455 255.691 136.218 255.742 136.014 255.844C135.81 255.943 135.653 256.085 135.542 256.27C135.43 256.452 135.376 256.667 135.378 256.913C135.376 257.164 135.432 257.383 135.545 257.57C135.661 257.757 135.821 257.902 136.025 258.007C136.228 258.111 136.463 258.163 136.728 258.163Z" fill="#615E83"/>
<path d="M61.9788 262.296V261.657L64.3793 259.029C64.661 258.722 64.8931 258.454 65.0753 258.227C65.2576 257.997 65.3926 257.782 65.4802 257.58C65.5701 257.377 65.6151 257.164 65.6151 256.941C65.6151 256.686 65.5536 256.464 65.4305 256.277C65.3097 256.09 65.144 255.946 64.9333 255.844C64.7226 255.742 64.4859 255.691 64.2231 255.691C63.9437 255.691 63.6999 255.749 63.4915 255.865C63.2856 255.979 63.1258 256.139 63.0121 256.345C62.9009 256.551 62.8452 256.792 62.8452 257.069H62.0072C62.0072 256.643 62.1054 256.269 62.3019 255.947C62.4984 255.625 62.7659 255.374 63.1045 255.194C63.4454 255.014 63.8277 254.924 64.2515 254.924C64.6776 254.924 65.0552 255.014 65.3843 255.194C65.7134 255.374 65.9714 255.617 66.1584 255.922C66.3455 256.227 66.439 256.567 66.439 256.941C66.439 257.209 66.3905 257.47 66.2934 257.726C66.1987 257.979 66.033 258.262 65.7962 258.575C65.5619 258.885 65.2363 259.264 64.8197 259.711L63.1861 261.458V261.515H66.5668V262.296H61.9788ZM70.4056 262.396C69.8706 262.396 69.4148 262.25 69.0384 261.959C68.662 261.665 68.3744 261.241 68.1755 260.684C67.9766 260.125 67.8772 259.451 67.8772 258.66C67.8772 257.874 67.9766 257.203 68.1755 256.647C68.3767 256.088 68.6655 255.662 69.042 255.368C69.4208 255.072 69.8753 254.924 70.4056 254.924C70.9359 254.924 71.3893 255.072 71.7657 255.368C72.1445 255.662 72.4333 256.088 72.6322 256.647C72.8334 257.203 72.934 257.874 72.934 258.66C72.934 259.451 72.8346 260.125 72.6357 260.684C72.4369 261.241 72.1492 261.665 71.7728 261.959C71.3964 262.25 70.9406 262.396 70.4056 262.396ZM70.4056 261.615C70.9359 261.615 71.3478 261.359 71.6414 260.848C71.935 260.336 72.0817 259.607 72.0817 258.66C72.0817 258.03 72.0143 257.494 71.8793 257.051C71.7467 256.609 71.555 256.271 71.304 256.039C71.0555 255.807 70.756 255.691 70.4056 255.691C69.88 255.691 69.4693 255.951 69.1734 256.469C68.8774 256.985 68.7295 257.715 68.7295 258.66C68.7295 259.29 68.7958 259.825 68.9283 260.265C69.0609 260.705 69.2515 261.04 69.5001 261.27C69.751 261.5 70.0529 261.615 70.4056 261.615ZM76.8403 255.024V262.296H75.9596V255.947H75.917L74.1414 257.126V256.231L75.9596 255.024H76.8403ZM79.1592 262.296L82.412 255.862V255.805H78.662V255.024H83.3211V255.848L80.0824 262.296H79.1592Z" fill="#615E83"/>
<path d="M173.101 262.296V261.657L175.501 259.029C175.783 258.722 176.015 258.454 176.197 258.227C176.379 257.997 176.514 257.782 176.602 257.58C176.692 257.377 176.737 257.164 176.737 256.941C176.737 256.686 176.675 256.464 176.552 256.277C176.432 256.09 176.266 255.946 176.055 255.844C175.844 255.742 175.608 255.691 175.345 255.691C175.066 255.691 174.822 255.749 174.613 255.865C174.407 255.979 174.248 256.139 174.134 256.345C174.023 256.551 173.967 256.792 173.967 257.069H173.129C173.129 256.643 173.227 256.269 173.424 255.947C173.62 255.625 173.888 255.374 174.226 255.194C174.567 255.014 174.95 254.924 175.373 254.924C175.799 254.924 176.177 255.014 176.506 255.194C176.835 255.374 177.093 255.617 177.28 255.922C177.467 256.227 177.561 256.567 177.561 256.941C177.561 257.209 177.512 257.47 177.415 257.726C177.32 257.979 177.155 258.262 176.918 258.575C176.684 258.885 176.358 259.264 175.941 259.711L174.308 261.458V261.515H177.689V262.296H173.101ZM181.527 262.396C180.992 262.396 180.537 262.25 180.16 261.959C179.784 261.665 179.496 261.241 179.297 260.684C179.098 260.125 178.999 259.451 178.999 258.66C178.999 257.874 179.098 257.203 179.297 256.647C179.499 256.088 179.787 255.662 180.164 255.368C180.543 255.072 180.997 254.924 181.527 254.924C182.058 254.924 182.511 255.072 182.887 255.368C183.266 255.662 183.555 256.088 183.754 256.647C183.955 257.203 184.056 257.874 184.056 258.66C184.056 259.451 183.956 260.125 183.758 260.684C183.559 261.241 183.271 261.665 182.895 261.959C182.518 262.25 182.062 262.396 181.527 262.396ZM181.527 261.615C182.058 261.615 182.47 261.359 182.763 260.848C183.057 260.336 183.204 259.607 183.204 258.66C183.204 258.03 183.136 257.494 183.001 257.051C182.869 256.609 182.677 256.271 182.426 256.039C182.177 255.807 181.878 255.691 181.527 255.691C181.002 255.691 180.591 255.951 180.295 256.469C179.999 256.985 179.851 257.715 179.851 258.66C179.851 259.29 179.918 259.825 180.05 260.265C180.183 260.705 180.373 261.04 180.622 261.27C180.873 261.5 181.175 261.615 181.527 261.615ZM187.962 255.024V262.296H187.081V255.947H187.039L185.263 257.126V256.231L187.081 255.024H187.962ZM192.369 254.924C192.667 254.927 192.966 254.983 193.264 255.095C193.562 255.206 193.834 255.391 194.081 255.649C194.327 255.904 194.525 256.254 194.674 256.696C194.823 257.139 194.897 257.694 194.897 258.362C194.897 259.008 194.836 259.582 194.713 260.084C194.592 260.584 194.417 261.005 194.187 261.348C193.96 261.692 193.683 261.952 193.356 262.129C193.032 262.307 192.665 262.396 192.255 262.396C191.848 262.396 191.485 262.315 191.165 262.154C190.848 261.991 190.588 261.765 190.384 261.476C190.183 261.185 190.054 260.848 189.997 260.464H190.863C190.941 260.798 191.097 261.074 191.329 261.291C191.563 261.507 191.872 261.615 192.255 261.615C192.816 261.615 193.259 261.37 193.584 260.879C193.91 260.389 194.074 259.697 194.074 258.802H194.017C193.884 259.001 193.727 259.173 193.544 259.317C193.362 259.461 193.16 259.573 192.937 259.651C192.715 259.729 192.478 259.768 192.227 259.768C191.81 259.768 191.428 259.665 191.08 259.459C190.734 259.251 190.457 258.965 190.249 258.603C190.043 258.239 189.94 257.822 189.94 257.353C189.94 256.908 190.039 256.501 190.238 256.132C190.44 255.76 190.721 255.464 191.084 255.244C191.448 255.024 191.877 254.917 192.369 254.924ZM192.369 255.705C192.071 255.705 191.802 255.78 191.563 255.929C191.326 256.076 191.138 256.275 190.998 256.526C190.861 256.774 190.792 257.05 190.792 257.353C190.792 257.656 190.859 257.932 190.991 258.181C191.126 258.427 191.31 258.623 191.542 258.77C191.776 258.915 192.042 258.987 192.341 258.987C192.566 258.987 192.775 258.943 192.969 258.855C193.163 258.765 193.333 258.643 193.477 258.49C193.624 258.333 193.739 258.157 193.821 257.96C193.904 257.762 193.946 257.554 193.946 257.339C193.946 257.055 193.877 256.789 193.74 256.54C193.605 256.291 193.418 256.09 193.179 255.936C192.942 255.782 192.672 255.705 192.369 255.705Z" fill="#615E83"/>
<path d="M228.107 262.296V261.657L230.508 259.029C230.79 258.722 231.022 258.454 231.204 258.227C231.386 257.997 231.521 257.782 231.609 257.58C231.699 257.377 231.744 257.164 231.744 256.941C231.744 256.686 231.682 256.464 231.559 256.277C231.438 256.09 231.273 255.946 231.062 255.844C230.851 255.742 230.614 255.691 230.352 255.691C230.072 255.691 229.829 255.749 229.62 255.865C229.414 255.979 229.254 256.139 229.141 256.345C229.029 256.551 228.974 256.792 228.974 257.069H228.136C228.136 256.643 228.234 256.269 228.431 255.947C228.627 255.625 228.895 255.374 229.233 255.194C229.574 255.014 229.956 254.924 230.38 254.924C230.806 254.924 231.184 255.014 231.513 255.194C231.842 255.374 232.1 255.617 232.287 255.922C232.474 256.227 232.568 256.567 232.568 256.941C232.568 257.209 232.519 257.47 232.422 257.726C232.327 257.979 232.162 258.262 231.925 258.575C231.69 258.885 231.365 259.264 230.948 259.711L229.315 261.458V261.515H232.695V262.296H228.107ZM236.534 262.396C235.999 262.396 235.543 262.25 235.167 261.959C234.791 261.665 234.503 261.241 234.304 260.684C234.105 260.125 234.006 259.451 234.006 258.66C234.006 257.874 234.105 257.203 234.304 256.647C234.505 256.088 234.794 255.662 235.171 255.368C235.549 255.072 236.004 254.924 236.534 254.924C237.065 254.924 237.518 255.072 237.894 255.368C238.273 255.662 238.562 256.088 238.761 256.647C238.962 257.203 239.063 257.874 239.063 258.66C239.063 259.451 238.963 260.125 238.764 260.684C238.565 261.241 238.278 261.665 237.901 261.959C237.525 262.25 237.069 262.396 236.534 262.396ZM236.534 261.615C237.065 261.615 237.476 261.359 237.77 260.848C238.064 260.336 238.21 259.607 238.21 258.66C238.21 258.03 238.143 257.494 238.008 257.051C237.875 256.609 237.684 256.271 237.433 256.039C237.184 255.807 236.885 255.691 236.534 255.691C236.009 255.691 235.598 255.951 235.302 256.469C235.006 256.985 234.858 257.715 234.858 258.66C234.858 259.29 234.924 259.825 235.057 260.265C235.19 260.705 235.38 261.04 235.629 261.27C235.88 261.5 236.181 261.615 236.534 261.615ZM240.412 262.296V261.657L242.813 259.029C243.094 258.722 243.326 258.454 243.509 258.227C243.691 257.997 243.826 257.782 243.913 257.58C244.003 257.377 244.048 257.164 244.048 256.941C244.048 256.686 243.987 256.464 243.864 256.277C243.743 256.09 243.577 255.946 243.367 255.844C243.156 255.742 242.919 255.691 242.656 255.691C242.377 255.691 242.133 255.749 241.925 255.865C241.719 255.979 241.559 256.139 241.445 256.345C241.334 256.551 241.279 256.792 241.279 257.069H240.44C240.44 256.643 240.539 256.269 240.735 255.947C240.932 255.625 241.199 255.374 241.538 255.194C241.879 255.014 242.261 254.924 242.685 254.924C243.111 254.924 243.489 255.014 243.818 255.194C244.147 255.374 244.405 255.617 244.592 255.922C244.779 256.227 244.872 256.567 244.872 256.941C244.872 257.209 244.824 257.47 244.727 257.726C244.632 257.979 244.466 258.262 244.23 258.575C243.995 258.885 243.67 259.264 243.253 259.711L241.619 261.458V261.515H245V262.296H240.412ZM248.839 262.396C248.304 262.396 247.848 262.25 247.472 261.959C247.095 261.665 246.808 261.241 246.609 260.684C246.41 260.125 246.311 259.451 246.311 258.66C246.311 257.874 246.41 257.203 246.609 256.647C246.81 256.088 247.099 255.662 247.475 255.368C247.854 255.072 248.309 254.924 248.839 254.924C249.369 254.924 249.823 255.072 250.199 255.368C250.578 255.662 250.867 256.088 251.065 256.647C251.267 257.203 251.367 257.874 251.367 258.66C251.367 259.451 251.268 260.125 251.069 260.684C250.87 261.241 250.583 261.665 250.206 261.959C249.83 262.25 249.374 262.396 248.839 262.396ZM248.839 261.615C249.369 261.615 249.781 261.359 250.075 260.848C250.368 260.336 250.515 259.607 250.515 258.66C250.515 258.03 250.448 257.494 250.313 257.051C250.18 256.609 249.988 256.271 249.737 256.039C249.489 255.807 249.189 255.691 248.839 255.691C248.313 255.691 247.903 255.951 247.607 256.469C247.311 256.985 247.163 257.715 247.163 258.66C247.163 259.29 247.229 259.825 247.362 260.265C247.494 260.705 247.685 261.04 247.933 261.27C248.184 261.5 248.486 261.615 248.839 261.615Z" fill="#615E83"/>
<path d="M284.605 262.296V261.657L287.006 259.029C287.288 258.722 287.52 258.454 287.702 258.227C287.884 257.997 288.019 257.782 288.107 257.58C288.197 257.377 288.242 257.164 288.242 256.941C288.242 256.686 288.18 256.464 288.057 256.277C287.936 256.09 287.771 255.946 287.56 255.844C287.349 255.742 287.113 255.691 286.85 255.691C286.57 255.691 286.327 255.749 286.118 255.865C285.912 255.979 285.752 256.139 285.639 256.345C285.528 256.551 285.472 256.792 285.472 257.069H284.634C284.634 256.643 284.732 256.269 284.929 255.947C285.125 255.625 285.393 255.374 285.731 255.194C286.072 255.014 286.454 254.924 286.878 254.924C287.304 254.924 287.682 255.014 288.011 255.194C288.34 255.374 288.598 255.617 288.785 255.922C288.972 256.227 289.066 256.567 289.066 256.941C289.066 257.209 289.017 257.47 288.92 257.726C288.825 257.979 288.66 258.262 288.423 258.575C288.189 258.885 287.863 259.264 287.446 259.711L285.813 261.458V261.515H289.193V262.296H284.605ZM293.032 262.396C292.497 262.396 292.042 262.25 291.665 261.959C291.289 261.665 291.001 261.241 290.802 260.684C290.603 260.125 290.504 259.451 290.504 258.66C290.504 257.874 290.603 257.203 290.802 256.647C291.003 256.088 291.292 255.662 291.669 255.368C292.047 255.072 292.502 254.924 293.032 254.924C293.563 254.924 294.016 255.072 294.392 255.368C294.771 255.662 295.06 256.088 295.259 256.647C295.46 257.203 295.561 257.874 295.561 258.66C295.561 259.451 295.461 260.125 295.262 260.684C295.064 261.241 294.776 261.665 294.399 261.959C294.023 262.25 293.567 262.396 293.032 262.396ZM293.032 261.615C293.563 261.615 293.975 261.359 294.268 260.848C294.562 260.336 294.708 259.607 294.708 258.66C294.708 258.03 294.641 257.494 294.506 257.051C294.373 256.609 294.182 256.271 293.931 256.039C293.682 255.807 293.383 255.691 293.032 255.691C292.507 255.691 292.096 255.951 291.8 256.469C291.504 256.985 291.356 257.715 291.356 258.66C291.356 259.29 291.422 259.825 291.555 260.265C291.688 260.705 291.878 261.04 292.127 261.27C292.378 261.5 292.68 261.615 293.032 261.615ZM296.91 262.296V261.657L299.311 259.029C299.592 258.722 299.824 258.454 300.007 258.227C300.189 257.997 300.324 257.782 300.412 257.58C300.501 257.377 300.546 257.164 300.546 256.941C300.546 256.686 300.485 256.464 300.362 256.277C300.241 256.09 300.075 255.946 299.865 255.844C299.654 255.742 299.417 255.691 299.154 255.691C298.875 255.691 298.631 255.749 298.423 255.865C298.217 255.979 298.057 256.139 297.943 256.345C297.832 256.551 297.777 256.792 297.777 257.069H296.939C296.939 256.643 297.037 256.269 297.233 255.947C297.43 255.625 297.697 255.374 298.036 255.194C298.377 255.014 298.759 254.924 299.183 254.924C299.609 254.924 299.987 255.014 300.316 255.194C300.645 255.374 300.903 255.617 301.09 255.922C301.277 256.227 301.37 256.567 301.37 256.941C301.37 257.209 301.322 257.47 301.225 257.726C301.13 257.979 300.964 258.262 300.728 258.575C300.493 258.885 300.168 259.264 299.751 259.711L298.117 261.458V261.515H301.498V262.296H296.91ZM305.522 255.024V262.296H304.641V255.947H304.598L302.823 257.126V256.231L304.641 255.024H305.522Z" fill="#615E83"/>
<path d="M339.847 262.296V261.657L342.247 259.029C342.529 258.722 342.761 258.454 342.943 258.227C343.126 257.997 343.26 257.782 343.348 257.58C343.438 257.377 343.483 257.164 343.483 256.941C343.483 256.686 343.421 256.464 343.298 256.277C343.178 256.09 343.012 255.946 342.801 255.844C342.59 255.742 342.354 255.691 342.091 255.691C341.812 255.691 341.568 255.749 341.359 255.865C341.153 255.979 340.994 256.139 340.88 256.345C340.769 256.551 340.713 256.792 340.713 257.069H339.875C339.875 256.643 339.973 256.269 340.17 255.947C340.366 255.625 340.634 255.374 340.972 255.194C341.313 255.014 341.696 254.924 342.119 254.924C342.545 254.924 342.923 255.014 343.252 255.194C343.581 255.374 343.839 255.617 344.026 255.922C344.213 256.227 344.307 256.567 344.307 256.941C344.307 257.209 344.258 257.47 344.161 257.726C344.067 257.979 343.901 258.262 343.664 258.575C343.43 258.885 343.104 259.264 342.688 259.711L341.054 261.458V261.515H344.435V262.296H339.847ZM348.273 262.396C347.738 262.396 347.283 262.25 346.906 261.959C346.53 261.665 346.242 261.241 346.043 260.684C345.845 260.125 345.745 259.451 345.745 258.66C345.745 257.874 345.845 257.203 346.043 256.647C346.245 256.088 346.533 255.662 346.91 255.368C347.289 255.072 347.743 254.924 348.273 254.924C348.804 254.924 349.257 255.072 349.634 255.368C350.012 255.662 350.301 256.088 350.5 256.647C350.701 257.203 350.802 257.874 350.802 258.66C350.802 259.451 350.702 260.125 350.504 260.684C350.305 261.241 350.017 261.665 349.641 261.959C349.264 262.25 348.809 262.396 348.273 262.396ZM348.273 261.615C348.804 261.615 349.216 261.359 349.509 260.848C349.803 260.336 349.95 259.607 349.95 258.66C349.95 258.03 349.882 257.494 349.747 257.051C349.615 256.609 349.423 256.271 349.172 256.039C348.923 255.807 348.624 255.691 348.273 255.691C347.748 255.691 347.337 255.951 347.041 256.469C346.745 256.985 346.597 257.715 346.597 258.66C346.597 259.29 346.664 259.825 346.796 260.265C346.929 260.705 347.119 261.04 347.368 261.27C347.619 261.5 347.921 261.615 348.273 261.615ZM352.151 262.296V261.657L354.552 259.029C354.834 258.722 355.066 258.454 355.248 258.227C355.43 257.997 355.565 257.782 355.653 257.58C355.743 257.377 355.788 257.164 355.788 256.941C355.788 256.686 355.726 256.464 355.603 256.277C355.482 256.09 355.317 255.946 355.106 255.844C354.895 255.742 354.658 255.691 354.396 255.691C354.116 255.691 353.872 255.749 353.664 255.865C353.458 255.979 353.298 256.139 353.185 256.345C353.073 256.551 353.018 256.792 353.018 257.069H352.18C352.18 256.643 352.278 256.269 352.474 255.947C352.671 255.625 352.938 255.374 353.277 255.194C353.618 255.014 354 254.924 354.424 254.924C354.85 254.924 355.228 255.014 355.557 255.194C355.886 255.374 356.144 255.617 356.331 255.922C356.518 256.227 356.612 256.567 356.612 256.941C356.612 257.209 356.563 257.47 356.466 257.726C356.371 257.979 356.206 258.262 355.969 258.575C355.734 258.885 355.409 259.264 354.992 259.711L353.359 261.458V261.515H356.739V262.296H352.151ZM358.206 262.296V261.657L360.607 259.029C360.888 258.722 361.12 258.454 361.303 258.227C361.485 257.997 361.62 257.782 361.707 257.58C361.797 257.377 361.842 257.164 361.842 256.941C361.842 256.686 361.781 256.464 361.658 256.277C361.537 256.09 361.371 255.946 361.161 255.844C360.95 255.742 360.713 255.691 360.45 255.691C360.171 255.691 359.927 255.749 359.719 255.865C359.513 255.979 359.353 256.139 359.239 256.345C359.128 256.551 359.072 256.792 359.072 257.069H358.234C358.234 256.643 358.333 256.269 358.529 255.947C358.726 255.625 358.993 255.374 359.332 255.194C359.673 255.014 360.055 254.924 360.479 254.924C360.905 254.924 361.282 255.014 361.612 255.194C361.941 255.374 362.199 255.617 362.386 255.922C362.573 256.227 362.666 256.567 362.666 256.941C362.666 257.209 362.618 257.47 362.521 257.726C362.426 257.979 362.26 258.262 362.023 258.575C361.789 258.885 361.464 259.264 361.047 259.711L359.413 261.458V261.515H362.794V262.296H358.206Z" fill="#615E83"/>
<path d="M43.0016 240.585C42.2525 240.585 41.6145 240.381 41.0875 239.973C40.5605 239.563 40.1578 238.968 39.8794 238.189C39.601 237.407 39.4618 236.462 39.4618 235.355C39.4618 234.255 39.601 233.315 39.8794 232.536C40.1612 231.754 40.5655 231.157 41.0925 230.746C41.6228 230.332 42.2592 230.125 43.0016 230.125C43.744 230.125 44.3787 230.332 44.9057 230.746C45.436 231.157 45.8404 231.754 46.1188 232.536C46.4005 233.315 46.5414 234.255 46.5414 235.355C46.5414 236.462 46.4022 237.407 46.1237 238.189C45.8453 238.968 45.4426 239.563 44.9156 239.973C44.3887 240.381 43.7506 240.585 43.0016 240.585ZM43.0016 239.491C43.744 239.491 44.3207 239.133 44.7317 238.417C45.1427 237.701 45.3482 236.681 45.3482 235.355C45.3482 234.473 45.2537 233.723 45.0648 233.103C44.8792 232.483 44.6107 232.011 44.2594 231.686C43.9114 231.361 43.4921 231.199 43.0016 231.199C42.2658 231.199 41.6907 231.562 41.2764 232.287C40.8621 233.01 40.655 234.032 40.655 235.355C40.655 236.237 40.7478 236.986 40.9334 237.602C41.119 238.219 41.3858 238.688 41.7338 239.009C42.0852 239.331 42.5077 239.491 43.0016 239.491Z" fill="#615E83"/>
<path d="M33.0334 194.021V204.203H31.8005V195.313H31.7408L29.255 196.964V195.711L31.8005 194.021H33.0334ZM36.1407 194.021H37.6123L41.0725 202.473H41.1918L44.6521 194.021H46.1236V204.203H44.9702V196.467H44.8708L41.689 204.203H40.5754L37.3935 196.467H37.2941V204.203H36.1407V194.021Z" fill="#615E83"/>
<path d="M27.4825 164.258V163.363L30.8433 159.684C31.2377 159.253 31.5625 158.878 31.8177 158.56C32.0729 158.239 32.2619 157.937 32.3845 157.655C32.5104 157.37 32.5734 157.072 32.5734 156.76C32.5734 156.402 32.4872 156.093 32.3149 155.831C32.1459 155.569 31.9139 155.367 31.6189 155.224C31.3239 155.082 30.9925 155.01 30.6246 155.01C30.2335 155.01 29.8921 155.092 29.6004 155.254C29.3121 155.413 29.0883 155.637 28.9292 155.925C28.7735 156.214 28.6956 156.552 28.6956 156.939H27.5223C27.5223 156.343 27.6598 155.819 27.9349 155.368C28.21 154.918 28.5845 154.566 29.0585 154.314C29.5358 154.062 30.071 153.937 30.6643 153.937C31.2609 153.937 31.7896 154.062 32.2503 154.314C32.711 154.566 33.0722 154.906 33.3341 155.334C33.5959 155.761 33.7268 156.237 33.7268 156.76C33.7268 157.135 33.6589 157.501 33.523 157.859C33.3904 158.214 33.1584 158.61 32.827 159.047C32.4988 159.482 32.0431 160.012 31.4598 160.638L29.1728 163.084V163.164H33.9058V164.258H27.4825ZM36.138 154.076H37.6096L41.0699 162.527H41.1892L44.6494 154.076H46.121V164.258H44.9676V156.522H44.8682L41.6863 164.258H40.5727L37.3909 156.522H37.2915V164.258H36.138V154.076Z" fill="#615E83"/>
<path d="M30.4839 125.546C29.8276 125.546 29.2426 125.433 28.7289 125.208C28.2185 124.983 27.8125 124.67 27.5109 124.268C27.2126 123.864 27.0502 123.395 27.0237 122.862H28.2765C28.303 123.19 28.4157 123.473 28.6146 123.712C28.8134 123.947 29.0736 124.129 29.3951 124.259C29.7166 124.388 30.0729 124.452 30.464 124.452C30.9015 124.452 31.2893 124.376 31.6273 124.224C31.9654 124.071 32.2306 123.859 32.4228 123.587C32.615 123.316 32.7112 123.001 32.7112 122.643C32.7112 122.268 32.6184 121.938 32.4327 121.653C32.2471 121.365 31.9754 121.14 31.6174 120.977C31.2595 120.815 30.822 120.734 30.3049 120.734H29.4896V119.64H30.3049C30.7093 119.64 31.0639 119.567 31.3688 119.421C31.6771 119.275 31.9174 119.07 32.0897 118.805C32.2654 118.54 32.3532 118.228 32.3532 117.87C32.3532 117.525 32.277 117.225 32.1245 116.97C31.972 116.715 31.7566 116.516 31.4782 116.374C31.2031 116.231 30.8783 116.16 30.5038 116.16C30.1524 116.16 29.821 116.224 29.5095 116.354C29.2012 116.48 28.9493 116.664 28.7538 116.906C28.5582 117.144 28.4522 117.433 28.4356 117.771H27.2424C27.2623 117.237 27.423 116.77 27.7247 116.369C28.0263 115.964 28.4207 115.649 28.9079 115.424C29.3984 115.199 29.937 115.086 30.5237 115.086C31.1534 115.086 31.6936 115.214 32.1444 115.469C32.5952 115.721 32.9415 116.054 33.1835 116.468C33.4254 116.882 33.5464 117.33 33.5464 117.81C33.5464 118.384 33.3956 118.873 33.094 119.277C32.7957 119.681 32.3897 119.961 31.8759 120.117V120.197C32.5189 120.303 33.0211 120.576 33.3823 121.017C33.7436 121.455 33.9242 121.996 33.9242 122.643C33.9242 123.196 33.7734 123.693 33.4718 124.134C33.1735 124.572 32.7658 124.916 32.2488 125.168C31.7318 125.42 31.1434 125.546 30.4839 125.546ZM36.1366 115.225H37.6082L41.0684 123.677H41.1877L44.6479 115.225H46.1195V125.407H44.9661V117.671H44.8667L41.6849 125.407H40.5712L37.3894 117.671H37.29V125.407H36.1366V115.225Z" fill="#615E83"/>
<line x1="60.6543" y1="237.531" x2="363.207" y2="237.531" stroke="#E5E5EF" stroke-width="1.5" stroke-linecap="round"/>
<line x1="60.6543" y1="196.461" x2="363.207" y2="196.461" stroke="#E5E5EF" stroke-width="1.5" stroke-linecap="round" stroke-dasharray="4 7"/>
<line x1="60.6543" y1="156.515" x2="363.207" y2="156.515" stroke="#E5E5EF" stroke-width="1.5" stroke-linecap="round" stroke-dasharray="4 7"/>
<line x1="60.6543" y1="116.566" x2="363.207" y2="116.566" stroke="#E5E5EF" stroke-width="1.5" stroke-linecap="round" stroke-dasharray="4 7"/>
<path d="M59.9043 145.951C59.9043 140.428 64.3814 135.951 69.9043 135.951H75.2184C80.7412 135.951 85.2184 140.428 85.2184 145.951V161.265H59.9043V145.951Z" fill="#7ED957"/>
<rect x="59.9043" y="161.265" width="25.3141" height="25.3141" fill="#38B6FF" fill-opacity="0.5"/>
<rect x="59.9043" y="186.583" width="25.3141" height="25.3141" fill="#F0E5FC"/>
<rect x="59.9043" y="211.897" width="25.3141" height="25.3141" fill="#F2F1FF"/>
<path d="M115.595 171.265C115.595 165.742 120.072 161.265 125.595 161.265H130.909C136.432 161.265 140.909 165.742 140.909 171.265V186.579H115.595V171.265Z" fill="#38B6FF" fill-opacity="0.5"/>
<rect x="115.595" y="186.582" width="25.3141" height="25.3141" fill="#F0E5FC"/>
<rect x="115.595" y="211.898" width="25.3141" height="25.3141" fill="#F2F1FF"/>
<path d="M171.286 120.638C171.286 115.115 175.763 110.638 181.286 110.638H186.6C192.123 110.638 196.6 115.115 196.6 120.638V135.952H171.286V120.638Z" fill="#7ED957"/>
<rect x="171.286" y="135.951" width="25.3141" height="25.3141" fill="#7ED957"/>
<rect x="171.286" y="161.265" width="25.3141" height="25.3141" fill="#38B6FF" fill-opacity="0.5"/>
<rect x="171.286" y="186.583" width="25.3141" height="25.3141" fill="#F0E5FC"/>
<rect x="171.286" y="211.897" width="25.3141" height="25.3141" fill="#F2F1FF"/>
<path d="M226.999 171.265C226.999 165.742 231.476 161.265 236.999 161.265H242.313C247.835 161.265 252.313 165.742 252.313 171.265V186.579H226.999V171.265Z" fill="#7ED957"/>
<rect x="227.001" y="186.582" width="25.3141" height="25.3141" fill="#F0E5FC"/>
<rect x="227.001" y="211.898" width="25.3141" height="25.3141" fill="#F2F1FF"/>
<path d="M282.699 171.265C282.699 165.742 287.176 161.265 292.699 161.265H298.013C303.536 161.265 308.013 165.742 308.013 171.265V186.579H282.699V171.265Z" fill="#38B6FF" fill-opacity="0.5"/>
<rect x="282.699" y="186.582" width="25.3141" height="25.3141" fill="#F0E5FC"/>
<rect x="282.699" y="211.898" width="25.3141" height="25.3141" fill="#F2F1FF"/>
<path d="M338.39 171.265C338.39 165.742 342.867 161.265 348.39 161.265H353.704C359.227 161.265 363.704 165.742 363.704 171.265V186.579H338.39V171.265Z" fill="#7ED957"/>
<rect x="338.39" y="186.582" width="25.3141" height="25.3141" fill="#F0E5FC"/>
<rect x="338.39" y="211.898" width="25.3141" height="25.3141" fill="#F2F1FF"/>
<path opacity="0.7" d="M148.213 148.254C112.108 187.471 82.7218 166.314 72.5415 148.418V237.128H351.29V174.046C347.85 175.826 339.939 191.216 323.873 177.628C297.612 152.339 275.435 171.597 268.821 177.628C262.207 183.658 240.225 199.221 223.496 164.205C206.766 129.19 195.289 123.938 189.259 123.549C183.228 123.16 172.529 120.436 148.213 148.254Z" fill="url(#paint0_linear_330_362)"/>
<path d="M72.5415 148.418C82.7218 166.315 112.108 187.472 148.213 148.254C172.529 120.436 183.228 123.16 189.259 123.549C195.289 123.938 206.766 129.19 223.496 164.206C240.225 199.221 262.207 183.659 268.821 177.628C275.435 171.598 297.612 152.339 323.873 177.628C339.938 191.216 347.85 175.826 351.29 174.047" stroke="#7ED957" stroke-width="2" stroke-linecap="round"/>
<circle cx="72.5391" cy="148.609" r="2.87746" fill="#38B6FF" stroke="white" stroke-width="2"/>
<circle cx="128.747" cy="164.242" r="2.87746" fill="#38B6FF" stroke="white" stroke-width="2"/>
<circle cx="183.952" cy="123.296" r="2.87746" fill="#38B6FF" stroke="white" stroke-width="2"/>
<circle cx="239.643" cy="183.807" r="2.87746" fill="#38B6FF" stroke="white" stroke-width="2"/>
<circle cx="295.364" cy="164.999" r="2.87746" fill="#38B6FF" stroke="white" stroke-width="2"/>
<circle cx="351.056" cy="173.922" r="2.87746" fill="#38B6FF" stroke="white" stroke-width="2"/>
<line x1="30.8423" y1="83.1063" x2="363.939" y2="83.1063" stroke="#E5E5EF"/>
<rect x="273.093" y="32.5312" width="90.6263" height="30.0476" rx="15.0238" fill="#F8F8FF"/>
<path fill-rule="evenodd" clip-rule="evenodd" d="M338.223 45.0075C337.981 45.2489 337.981 45.6403 338.223 45.8817L342.431 50.0897C342.435 50.094 342.439 50.0984 342.443 50.1026C342.564 50.2234 342.722 50.2837 342.881 50.2837C343.039 50.2837 343.197 50.2234 343.318 50.1026C343.322 50.0984 343.326 50.094 343.331 50.0897L347.539 45.8817C347.78 45.6403 347.78 45.2489 347.539 45.0075C347.297 44.7661 346.906 44.7661 346.664 45.0075L342.881 48.7911L339.097 45.0075C338.856 44.7661 338.464 44.7661 338.223 45.0075Z" fill="#615E83"/>
<path d="M32.2329 51.0552H36.4048L40.811 61.8052H40.9985L45.4048 51.0552H49.5767V67.0552H46.2954V56.6411H46.1626L42.022 66.9771H39.7876L35.647 56.6021H35.5142V67.0552H32.2329V51.0552ZM57.77 67.2896C56.5356 67.2896 55.4731 67.0396 54.5825 66.5396C53.6971 66.0343 53.0148 65.3208 52.5356 64.3989C52.0565 63.4718 51.8169 62.3755 51.8169 61.1099C51.8169 59.8755 52.0565 58.7922 52.5356 57.8599C53.0148 56.9276 53.6893 56.201 54.5591 55.6802C55.4341 55.1593 56.4601 54.8989 57.6372 54.8989C58.4289 54.8989 59.1659 55.0265 59.8481 55.2817C60.5356 55.5317 61.1346 55.9093 61.645 56.4146C62.1606 56.9198 62.5617 57.5552 62.8481 58.3208C63.1346 59.0812 63.2778 59.9718 63.2778 60.9927V61.9067H53.145V59.8442H60.145C60.145 59.3651 60.0409 58.9406 59.8325 58.5708C59.6242 58.201 59.3351 57.9119 58.9653 57.7036C58.6007 57.4901 58.1763 57.3833 57.6919 57.3833C57.1867 57.3833 56.7388 57.5005 56.3481 57.7349C55.9627 57.964 55.6606 58.2739 55.4419 58.6646C55.2231 59.05 55.1112 59.4797 55.106 59.9536V61.9146C55.106 62.5083 55.2153 63.0213 55.4341 63.4536C55.658 63.8859 55.9731 64.2192 56.3794 64.4536C56.7856 64.688 57.2674 64.8052 57.8247 64.8052C58.1945 64.8052 58.533 64.7531 58.8403 64.6489C59.1476 64.5448 59.4106 64.3885 59.6294 64.1802C59.8481 63.9718 60.0148 63.7166 60.1294 63.4146L63.2075 63.6177C63.0513 64.3573 62.731 65.0031 62.2466 65.5552C61.7674 66.1021 61.1476 66.5291 60.3872 66.8364C59.632 67.1385 58.7596 67.2896 57.77 67.2896ZM75.4341 58.4771L72.3872 58.6646C72.3351 58.4041 72.2231 58.1698 72.0513 57.9614C71.8794 57.7479 71.6528 57.5786 71.3716 57.4536C71.0955 57.3234 70.7648 57.2583 70.3794 57.2583C69.8638 57.2583 69.4289 57.3677 69.0747 57.5864C68.7205 57.8 68.5435 58.0864 68.5435 58.4458C68.5435 58.7323 68.658 58.9744 68.8872 59.1724C69.1164 59.3703 69.5096 59.5291 70.0669 59.6489L72.2388 60.0864C73.4054 60.326 74.2752 60.7114 74.8481 61.2427C75.4211 61.7739 75.7075 62.4718 75.7075 63.3364C75.7075 64.1229 75.4757 64.813 75.0122 65.4067C74.5539 66.0005 73.9237 66.464 73.1216 66.7974C72.3247 67.1255 71.4054 67.2896 70.3638 67.2896C68.7752 67.2896 67.5096 66.9588 66.5669 66.2974C65.6294 65.6307 65.0799 64.7244 64.9185 63.5786L68.1919 63.4067C68.2909 63.8911 68.5304 64.2609 68.9106 64.5161C69.2909 64.7661 69.7778 64.8911 70.3716 64.8911C70.9549 64.8911 71.4237 64.7791 71.7778 64.5552C72.1372 64.326 72.3195 64.0317 72.3247 63.6724C72.3195 63.3703 72.1919 63.1229 71.9419 62.9302C71.6919 62.7323 71.3065 62.5812 70.7856 62.4771L68.7075 62.063C67.5356 61.8286 66.6632 61.4224 66.0903 60.8442C65.5226 60.2661 65.2388 59.5291 65.2388 58.6333C65.2388 57.8625 65.4471 57.1984 65.8638 56.6411C66.2856 56.0838 66.8768 55.6541 67.6372 55.3521C68.4028 55.05 69.2987 54.8989 70.3247 54.8989C71.8403 54.8989 73.033 55.2192 73.9028 55.8599C74.7778 56.5005 75.2882 57.3729 75.4341 58.4771ZM82.9575 67.0552V51.0552H89.27C90.4836 51.0552 91.5174 51.2869 92.3716 51.7505C93.2257 52.2088 93.8768 52.8468 94.3247 53.6645C94.7778 54.4771 95.0044 55.4146 95.0044 56.4771C95.0044 57.5396 94.7752 58.4771 94.3169 59.2896C93.8586 60.1021 93.1945 60.7349 92.3247 61.188C91.4601 61.6411 90.4132 61.8677 89.1841 61.8677H85.1606V59.1567H88.6372C89.2882 59.1567 89.8247 59.0448 90.2466 58.8208C90.6737 58.5916 90.9914 58.2765 91.1997 57.8755C91.4132 57.4692 91.52 57.0031 91.52 56.4771C91.52 55.9458 91.4132 55.4823 91.1997 55.0864C90.9914 54.6854 90.6737 54.3755 90.2466 54.1567C89.8195 53.9328 89.2778 53.8208 88.6216 53.8208H86.3403V67.0552H82.9575ZM97.1392 67.0552V55.0552H100.366V57.1489H100.491C100.709 56.4041 101.077 55.8416 101.592 55.4614C102.108 55.076 102.702 54.8833 103.374 54.8833C103.54 54.8833 103.72 54.8937 103.913 54.9146C104.105 54.9354 104.275 54.964 104.42 55.0005V57.9536C104.264 57.9067 104.048 57.8651 103.772 57.8286C103.496 57.7922 103.243 57.7739 103.014 57.7739C102.525 57.7739 102.087 57.8807 101.702 58.0942C101.321 58.3026 101.019 58.5942 100.795 58.9692C100.577 59.3442 100.467 59.7765 100.467 60.2661V67.0552H97.1392ZM111.004 67.2896C109.791 67.2896 108.741 67.0317 107.856 66.5161C106.976 65.9953 106.296 65.2713 105.817 64.3442C105.338 63.4119 105.098 62.3312 105.098 61.1021C105.098 59.8625 105.338 58.7791 105.817 57.8521C106.296 56.9198 106.976 56.1958 107.856 55.6802C108.741 55.1593 109.791 54.8989 111.004 54.8989C112.218 54.8989 113.265 55.1593 114.145 55.6802C115.03 56.1958 115.713 56.9198 116.192 57.8521C116.671 58.7791 116.911 59.8625 116.911 61.1021C116.911 62.3312 116.671 63.4119 116.192 64.3442C115.713 65.2713 115.03 65.9953 114.145 66.5161C113.265 67.0317 112.218 67.2896 111.004 67.2896ZM111.02 64.7114C111.572 64.7114 112.033 64.5552 112.403 64.2427C112.773 63.925 113.051 63.4927 113.239 62.9458C113.431 62.3989 113.528 61.7765 113.528 61.0786C113.528 60.3807 113.431 59.7583 113.239 59.2114C113.051 58.6646 112.773 58.2323 112.403 57.9146C112.033 57.5968 111.572 57.438 111.02 57.438C110.463 57.438 109.994 57.5968 109.614 57.9146C109.239 58.2323 108.955 58.6646 108.762 59.2114C108.575 59.7583 108.481 60.3807 108.481 61.0786C108.481 61.7765 108.575 62.3989 108.762 62.9458C108.955 63.4927 109.239 63.925 109.614 64.2427C109.994 64.5552 110.463 64.7114 111.02 64.7114ZM119.075 55.0552H122.403V67.6489C122.403 68.576 122.221 69.326 121.856 69.8989C121.491 70.4718 120.968 70.8911 120.286 71.1567C119.609 71.4224 118.799 71.5552 117.856 71.5552C117.741 71.5552 117.632 71.5526 117.528 71.5474C117.418 71.5474 117.304 71.5448 117.184 71.5396V68.938C117.273 68.9432 117.351 68.9458 117.418 68.9458C117.481 68.951 117.549 68.9536 117.622 68.9536C118.158 68.9536 118.533 68.839 118.747 68.6099C118.965 68.3859 119.075 68.0474 119.075 67.5942V55.0552ZM120.731 53.5083C120.241 53.5083 119.819 53.3442 119.465 53.0161C119.111 52.6828 118.934 52.2843 118.934 51.8208C118.934 51.3625 119.111 50.9692 119.465 50.6411C119.819 50.3078 120.241 50.1411 120.731 50.1411C121.231 50.1411 121.655 50.3078 122.004 50.6411C122.359 50.9692 122.536 51.3625 122.536 51.8208C122.536 52.2843 122.359 52.6828 122.004 53.0161C121.655 53.3442 121.231 53.5083 120.731 53.5083ZM130.538 67.2896C129.303 67.2896 128.241 67.0396 127.35 66.5396C126.465 66.0343 125.782 65.3208 125.303 64.3989C124.824 63.4718 124.584 62.3755 124.584 61.1099C124.584 59.8755 124.824 58.7922 125.303 57.8599C125.782 56.9276 126.457 56.201 127.327 55.6802C128.202 55.1593 129.228 54.8989 130.405 54.8989C131.196 54.8989 131.933 55.0265 132.616 55.2817C133.303 55.5317 133.902 55.9093 134.413 56.4146C134.928 56.9198 135.329 57.5552 135.616 58.3208C135.902 59.0812 136.045 59.9718 136.045 60.9927V61.9067H125.913V59.8442H132.913C132.913 59.3651 132.808 58.9406 132.6 58.5708C132.392 58.201 132.103 57.9119 131.733 57.7036C131.368 57.4901 130.944 57.3833 130.459 57.3833C129.954 57.3833 129.506 57.5005 129.116 57.7349C128.73 57.964 128.428 58.2739 128.209 58.6646C127.991 59.05 127.879 59.4797 127.874 59.9536V61.9146C127.874 62.5083 127.983 63.0213 128.202 63.4536C128.426 63.8859 128.741 64.2192 129.147 64.4536C129.553 64.688 130.035 64.8052 130.592 64.8052C130.962 64.8052 131.301 64.7531 131.608 64.6489C131.915 64.5448 132.178 64.3885 132.397 64.1802C132.616 63.9718 132.782 63.7166 132.897 63.4146L135.975 63.6177C135.819 64.3573 135.499 65.0031 135.014 65.5552C134.535 66.1021 133.915 66.5291 133.155 66.8364C132.4 67.1385 131.527 67.2896 130.538 67.2896ZM144.6 55.0552V57.5552H137.374V55.0552H144.6ZM139.014 52.1802H142.342V63.3677C142.342 63.675 142.389 63.9146 142.483 64.0864C142.577 64.2531 142.707 64.3703 142.874 64.438C143.045 64.5057 143.243 64.5396 143.467 64.5396C143.624 64.5396 143.78 64.5265 143.936 64.5005C144.092 64.4692 144.212 64.4458 144.295 64.4302L144.819 66.9067C144.652 66.9588 144.418 67.0187 144.116 67.0864C143.814 67.1593 143.446 67.2036 143.014 67.2192C142.212 67.2505 141.509 67.1437 140.905 66.8989C140.306 66.6541 139.84 66.2739 139.506 65.7583C139.173 65.2427 139.009 64.5916 139.014 63.8052V52.1802ZM156.602 58.4771L153.555 58.6646C153.503 58.4041 153.391 58.1698 153.219 57.9614C153.047 57.7479 152.821 57.5786 152.54 57.4536C152.264 57.3234 151.933 57.2583 151.547 57.2583C151.032 57.2583 150.597 57.3677 150.243 57.5864C149.889 57.8 149.711 58.0864 149.711 58.4458C149.711 58.7323 149.826 58.9744 150.055 59.1724C150.284 59.3703 150.678 59.5291 151.235 59.6489L153.407 60.0864C154.573 60.326 155.443 60.7114 156.016 61.2427C156.589 61.7739 156.875 62.4718 156.875 63.3364C156.875 64.1229 156.644 64.813 156.18 65.4067C155.722 66.0005 155.092 66.464 154.29 66.7974C153.493 67.1255 152.573 67.2896 151.532 67.2896C149.943 67.2896 148.678 66.9588 147.735 66.2974C146.797 65.6307 146.248 64.7244 146.086 63.5786L149.36 63.4067C149.459 63.8911 149.698 64.2609 150.079 64.5161C150.459 64.7661 150.946 64.8911 151.54 64.8911C152.123 64.8911 152.592 64.7791 152.946 64.5552C153.305 64.326 153.487 64.0317 153.493 63.6724C153.487 63.3703 153.36 63.1229 153.11 62.9302C152.86 62.7323 152.474 62.5812 151.954 62.4771L149.875 62.063C148.704 61.8286 147.831 61.4224 147.258 60.8442C146.691 60.2661 146.407 59.5291 146.407 58.6333C146.407 57.8625 146.615 57.1984 147.032 56.6411C147.454 56.0838 148.045 55.6541 148.805 55.3521C149.571 55.05 150.467 54.8989 151.493 54.8989C153.008 54.8989 154.201 55.2192 155.071 55.8599C155.946 56.5005 156.456 57.3729 156.602 58.4771Z" fill="#1E1B39"/>
<path d="M38.5866 28.2133C38.5099 27.5656 38.1988 27.0627 37.6534 26.7048C37.1079 26.3468 36.4389 26.1679 35.6463 26.1679C35.0667 26.1679 34.5596 26.2616 34.125 26.4491C33.6946 26.6366 33.3579 26.8944 33.115 27.2225C32.8764 27.5507 32.7571 27.9235 32.7571 28.3412C32.7571 28.6906 32.8402 28.991 33.0063 29.2424C33.1768 29.4896 33.3941 29.6963 33.6583 29.8625C33.9225 30.0244 34.1995 30.1586 34.4893 30.2652C34.7791 30.3674 35.0454 30.4505 35.2883 30.5144L36.6179 30.8724C36.9588 30.9619 37.338 31.0855 37.7556 31.2431C38.1775 31.4008 38.5802 31.616 38.9637 31.8887C39.3515 32.1572 39.6711 32.5024 39.9225 32.9242C40.174 33.3461 40.2997 33.8639 40.2997 34.4775C40.2997 35.1849 40.1143 35.8241 39.7436 36.3951C39.3771 36.9662 38.8402 37.42 38.1328 37.7566C37.4296 38.0933 36.5752 38.2616 35.5696 38.2616C34.6321 38.2616 33.8203 38.1103 33.1342 37.8078C32.4524 37.5052 31.9154 37.0833 31.5234 36.5421C31.1356 36.001 30.9161 35.3724 30.865 34.6565H32.5014C32.544 35.1508 32.7102 35.5599 33 35.8838C33.294 36.2034 33.6647 36.442 34.1122 36.5997C34.5639 36.7531 35.0497 36.8298 35.5696 36.8298C36.1747 36.8298 36.718 36.7318 37.1995 36.5358C37.6811 36.3355 38.0625 36.0585 38.3437 35.7048C38.625 35.3468 38.7656 34.9292 38.7656 34.4519C38.7656 34.0173 38.6441 33.6636 38.4012 33.3909C38.1583 33.1181 37.8387 32.8966 37.4424 32.7261C37.0461 32.5556 36.6179 32.4065 36.1576 32.2787L34.5468 31.8184C33.5241 31.5244 32.7144 31.1046 32.1179 30.5592C31.5213 30.0137 31.223 29.3 31.223 28.4179C31.223 27.6849 31.4211 27.0457 31.8174 26.5002C32.218 25.9505 32.7549 25.5244 33.4282 25.2218C34.1058 24.915 34.8622 24.7616 35.6974 24.7616C36.5411 24.7616 37.2911 24.9129 37.9474 25.2154C38.6036 25.5137 39.1235 25.9228 39.5071 26.4427C39.8948 26.9626 40.0994 27.5528 40.1207 28.2133H38.5866ZM46.9714 28.2133V29.4917H41.8833V28.2133H46.9714ZM43.3663 25.861H44.8748V35.219C44.8748 35.6451 44.9366 35.9647 45.0601 36.1778C45.188 36.3866 45.3499 36.5272 45.5459 36.5997C45.7462 36.6679 45.9572 36.7019 46.1788 36.7019C46.3449 36.7019 46.4813 36.6934 46.5878 36.6764C46.6944 36.6551 46.7796 36.638 46.8435 36.6252L47.1503 37.9804C47.0481 38.0187 46.9053 38.0571 46.7221 38.0954C46.5388 38.138 46.3066 38.1593 46.0253 38.1593C45.5992 38.1593 45.1816 38.0677 44.7725 37.8845C44.3677 37.7012 44.031 37.4221 43.7626 37.0471C43.4984 36.6721 43.3663 36.1991 43.3663 35.6281V25.861ZM52.1297 38.2616C51.5076 38.2616 50.943 38.1444 50.4359 37.91C49.9288 37.6714 49.5261 37.3284 49.2278 36.8809C48.9295 36.4292 48.7803 35.8838 48.7803 35.2446C48.7803 34.6821 48.8911 34.2261 49.1127 33.8767C49.3343 33.523 49.6305 33.246 50.0012 33.0457C50.3719 32.8454 50.781 32.6963 51.2285 32.5983C51.6802 32.496 52.134 32.415 52.59 32.3554C53.1866 32.2787 53.6702 32.2211 54.041 32.1828C54.416 32.1402 54.6887 32.0698 54.8592 31.9718C55.0339 31.8738 55.1212 31.7034 55.1212 31.4605V31.4093C55.1212 30.7787 54.9486 30.2886 54.6035 29.9392C54.2626 29.5897 53.7448 29.415 53.0502 29.415C52.33 29.415 51.7654 29.5727 51.3563 29.888C50.9472 30.2034 50.6596 30.54 50.4934 30.898L49.0616 30.3866C49.3172 29.79 49.6582 29.3255 50.0843 28.9931C50.5147 28.6565 50.9834 28.4221 51.4905 28.29C52.0019 28.1537 52.5047 28.0855 52.9991 28.0855C53.3144 28.0855 53.6766 28.1238 54.0857 28.2005C54.4991 28.273 54.8975 28.4242 55.281 28.6544C55.6688 28.8845 55.9905 29.2318 56.2462 29.6963C56.5019 30.1608 56.6298 30.7829 56.6298 31.5627V38.0315H55.1212V36.7019H55.0445C54.9422 36.915 54.7718 37.143 54.5332 37.3859C54.2945 37.6288 53.9771 37.8355 53.5807 38.0059C53.1844 38.1764 52.7008 38.2616 52.1297 38.2616ZM52.3599 36.9065C52.9565 36.9065 53.4593 36.7893 53.8684 36.5549C54.2817 36.3206 54.5928 36.018 54.8016 35.6473C55.0147 35.2765 55.1212 34.8866 55.1212 34.4775V33.0968C55.0573 33.1735 54.9167 33.2439 54.6994 33.3078C54.4863 33.3674 54.2391 33.4207 53.9579 33.4676C53.6809 33.5102 53.4103 33.5485 53.1461 33.5826C52.8861 33.6125 52.6752 33.638 52.5133 33.6593C52.1212 33.7105 51.7547 33.7936 51.4138 33.9086C51.0772 34.0194 50.8045 34.1877 50.5957 34.4136C50.3911 34.6352 50.2888 34.9377 50.2888 35.3213C50.2888 35.8454 50.4827 36.2417 50.8705 36.5102C51.2626 36.7744 51.759 36.9065 52.3599 36.9065ZM63.653 28.2133V29.4917H58.5649V28.2133H63.653ZM60.0479 25.861H61.5564V35.219C61.5564 35.6451 61.6182 35.9647 61.7418 36.1778C61.8696 36.3866 62.0316 36.5272 62.2276 36.5997C62.4279 36.6679 62.6388 36.7019 62.8604 36.7019C63.0266 36.7019 63.163 36.6934 63.2695 36.6764C63.376 36.6551 63.4612 36.638 63.5252 36.6252L63.832 37.9804C63.7297 38.0187 63.587 38.0571 63.4037 38.0954C63.2205 38.138 62.9882 38.1593 62.707 38.1593C62.2809 38.1593 61.8632 38.0677 61.4541 37.8845C61.0493 37.7012 60.7127 37.4221 60.4442 37.0471C60.18 36.6721 60.0479 36.1991 60.0479 35.6281V25.861ZM65.9222 38.0315V28.2133H67.4307V38.0315H65.9222ZM66.6892 26.5769C66.3952 26.5769 66.1416 26.4768 65.9286 26.2765C65.7198 26.0762 65.6154 25.8355 65.6154 25.5542C65.6154 25.273 65.7198 25.0322 65.9286 24.8319C66.1416 24.6316 66.3952 24.5315 66.6892 24.5315C66.9833 24.5315 67.2347 24.6316 67.4435 24.8319C67.6566 25.0322 67.7631 25.273 67.7631 25.5542C67.7631 25.8355 67.6566 26.0762 67.4435 26.2765C67.2347 26.4768 66.9833 26.5769 66.6892 26.5769ZM77.1482 30.4122L75.7931 30.7957C75.7079 30.5698 75.5822 30.3504 75.416 30.1373C75.254 29.92 75.0324 29.741 74.7512 29.6004C74.4699 29.4598 74.1099 29.3894 73.6709 29.3894C73.0701 29.3894 72.5694 29.5279 72.1688 29.8049C71.7725 30.0777 71.5744 30.425 71.5744 30.8468C71.5744 31.2218 71.7107 31.518 71.9834 31.7353C72.2562 31.9527 72.6823 32.1338 73.2619 32.2787L74.7192 32.6366C75.5971 32.8497 76.2512 33.1757 76.6816 33.6146C77.112 34.0492 77.3272 34.6096 77.3272 35.2957C77.3272 35.8582 77.1653 36.361 76.8414 36.8042C76.5218 37.2474 76.0744 37.5968 75.4991 37.8525C74.9238 38.1082 74.2547 38.236 73.492 38.236C72.4905 38.236 71.6617 38.0187 71.0055 37.5841C70.3492 37.1494 69.9337 36.5144 69.759 35.6792L71.1908 35.3213C71.3272 35.8497 71.585 36.246 71.9643 36.5102C72.3478 36.7744 72.8485 36.9065 73.4664 36.9065C74.1695 36.9065 74.7278 36.7573 75.1411 36.4591C75.5587 36.1565 75.7675 35.7943 75.7675 35.3724C75.7675 35.0315 75.6482 34.746 75.4096 34.5159C75.1709 34.2815 74.8045 34.1068 74.3101 33.9917L72.6738 33.6082C71.7746 33.3951 71.1141 33.0649 70.6922 32.6174C70.2746 32.1657 70.0658 31.6011 70.0658 30.9235C70.0658 30.3696 70.2214 29.8795 70.5324 29.4534C70.8478 29.0272 71.2761 28.6927 71.8172 28.4498C72.3627 28.2069 72.9806 28.0855 73.6709 28.0855C74.6425 28.0855 75.4053 28.2985 75.9593 28.7247C76.5175 29.1508 76.9138 29.7133 77.1482 30.4122ZM83.8679 28.2133V29.4917H78.7798V28.2133H83.8679ZM80.2627 25.861H81.7713V35.219C81.7713 35.6451 81.8331 35.9647 81.9566 36.1778C82.0845 36.3866 82.2464 36.5272 82.4424 36.5997C82.6427 36.6679 82.8536 36.7019 83.0752 36.7019C83.2414 36.7019 83.3778 36.6934 83.4843 36.6764C83.5909 36.6551 83.6761 36.638 83.74 36.6252L84.0468 37.9804C83.9446 38.0187 83.8018 38.0571 83.6186 38.0954C83.4353 38.138 83.2031 38.1593 82.9218 38.1593C82.4957 38.1593 82.0781 38.0677 81.669 37.8845C81.2642 37.7012 80.9275 37.4221 80.659 37.0471C80.3948 36.6721 80.2627 36.1991 80.2627 35.6281V25.861ZM86.137 38.0315V28.2133H87.6456V38.0315H86.137ZM86.9041 26.5769C86.61 26.5769 86.3565 26.4768 86.1434 26.2765C85.9346 26.0762 85.8302 25.8355 85.8302 25.5542C85.8302 25.273 85.9346 25.0322 86.1434 24.8319C86.3565 24.6316 86.61 24.5315 86.9041 24.5315C87.1981 24.5315 87.4495 24.6316 87.6583 24.8319C87.8714 25.0322 87.9779 25.273 87.9779 25.5542C87.9779 25.8355 87.8714 26.0762 87.6583 26.2765C87.4495 26.4768 87.1981 26.5769 86.9041 26.5769ZM94.3972 38.236C93.4767 38.236 92.6841 38.0187 92.0193 37.5841C91.3545 37.1494 90.8432 36.5507 90.4852 35.7879C90.1273 35.0251 89.9483 34.1537 89.9483 33.1735C89.9483 32.1764 90.1315 31.2964 90.498 30.5336C90.8687 29.7666 91.3844 29.1679 92.0449 28.7375C92.7097 28.3028 93.4852 28.0855 94.3716 28.0855C95.0619 28.0855 95.6841 28.2133 96.2381 28.469C96.792 28.7247 97.2459 29.0826 97.5996 29.5429C97.9533 30.0031 98.1727 30.54 98.2579 31.1537H96.7494C96.6344 30.7062 96.3787 30.3099 95.9824 29.9647C95.5903 29.6153 95.0619 29.4406 94.3972 29.4406C93.8091 29.4406 93.2935 29.594 92.8503 29.9008C92.4114 30.2034 92.0683 30.6316 91.8212 31.1856C91.5783 31.7353 91.4568 32.3809 91.4568 33.1224C91.4568 33.8809 91.5761 34.5414 91.8148 35.1039C92.0577 35.6664 92.3986 36.1032 92.8375 36.4143C93.2807 36.7254 93.8006 36.8809 94.3972 36.8809C94.7892 36.8809 95.145 36.8127 95.4646 36.6764C95.7842 36.54 96.0548 36.344 96.2764 36.0883C96.498 35.8326 96.6557 35.5258 96.7494 35.1679H98.2579C98.1727 35.7474 97.9618 36.2694 97.6251 36.7339C97.2927 37.1941 96.8517 37.5606 96.302 37.8333C95.7565 38.1018 95.1216 38.236 94.3972 38.236ZM107.418 30.4122L106.063 30.7957C105.977 30.5698 105.852 30.3504 105.686 30.1373C105.524 29.92 105.302 29.741 105.021 29.6004C104.739 29.4598 104.379 29.3894 103.94 29.3894C103.34 29.3894 102.839 29.5279 102.438 29.8049C102.042 30.0777 101.844 30.425 101.844 30.8468C101.844 31.2218 101.98 31.518 102.253 31.7353C102.526 31.9527 102.952 32.1338 103.531 32.2787L104.989 32.6366C105.867 32.8497 106.521 33.1757 106.951 33.6146C107.382 34.0492 107.597 34.6096 107.597 35.2957C107.597 35.8582 107.435 36.361 107.111 36.8042C106.791 37.2474 106.344 37.5968 105.769 37.8525C105.193 38.1082 104.524 38.236 103.761 38.236C102.76 38.236 101.931 38.0187 101.275 37.5841C100.619 37.1494 100.203 36.5144 100.029 35.6792L101.46 35.3213C101.597 35.8497 101.855 36.246 102.234 36.5102C102.617 36.7744 103.118 36.9065 103.736 36.9065C104.439 36.9065 104.997 36.7573 105.411 36.4591C105.828 36.1565 106.037 35.7943 106.037 35.3724C106.037 35.0315 105.918 34.746 105.679 34.5159C105.44 34.2815 105.074 34.1068 104.58 33.9917L102.943 33.6082C102.044 33.3951 101.384 33.0649 100.962 32.6174C100.544 32.1657 100.335 31.6011 100.335 30.9235C100.335 30.3696 100.491 29.8795 100.802 29.4534C101.117 29.0272 101.546 28.6927 102.087 28.4498C102.632 28.2069 103.25 28.0855 103.94 28.0855C104.912 28.0855 105.675 28.2985 106.229 28.7247C106.787 29.1508 107.183 29.7133 107.418 30.4122Z" fill="#7ED957"/>
<defs>
<filter id="filter0_d_330_362" x="0" y="0" width="395" height="300.352" filterUnits="userSpaceOnUse" color-interpolation-filters="sRGB">
<feFlood flood-opacity="0" result="BackgroundImageFix"/>
<feColorMatrix in="SourceAlpha" type="matrix" values="0 0 0 0 0 0 0 0 0 0 0 0 0 0 0 0 0 0 127 0" result="hardAlpha"/>
<feOffset dy="2"/>
<feGaussianBlur stdDeviation="3"/>
<feComposite in2="hardAlpha" operator="out"/>
<feColorMatrix type="matrix" values="0 0 0 0 0.0509804 0 0 0 0 0.0392157 0 0 0 0 0.172549 0 0 0 0.08 0"/>
<feBlend mode="normal" in2="BackgroundImageFix" result="effect1_dropShadow_330_362"/>
<feBlend mode="normal" in="SourceGraphic" in2="effect1_dropShadow_330_362" result="shape"/>
</filter>
<linearGradient id="paint0_linear_330_362" x1="211.916" y1="123.298" x2="211.916" y2="237.128" gradientUnits="userSpaceOnUse">
<stop stop-color="#FBD7E0"/>
<stop offset="1" stop-color="#FFECED" stop-opacity="0"/>
</linearGradient>
</defs>
</svg>
