<svg width="40" height="40" viewBox="0 0 40 40" fill="none" xmlns="http://www.w3.org/2000/svg">
<path d="M0 22.0958H4.91018V36.008H0V22.0958Z" fill="white"/>
<path d="M23.7327 0C22.4378 0 21.1721 0.383969 20.0954 1.10335C19.0188 1.82274 18.1797 2.84522 17.6841 4.04151C17.1886 5.2378 17.059 6.55417 17.3116 7.82414C17.5642 9.09412 18.1877 10.2607 19.1033 11.1763C20.0189 12.0919 21.1855 12.7154 22.4555 12.968C23.7254 13.2206 25.0418 13.091 26.2381 12.5955C27.4344 12.0999 28.4569 11.2608 29.1763 10.1842C29.8956 9.10754 30.2796 7.84176 30.2796 6.54691C30.2796 4.81056 29.5898 3.14533 28.3621 1.91754C27.1343 0.689762 25.469 0 23.7327 0ZM23.7327 5.72854C24.3085 5.73301 24.8643 5.93969 25.3031 6.31246C25.7419 6.68522 26.0358 7.20036 26.1333 7.76782C26.2308 8.33527 26.1257 8.91894 25.8365 9.4168C25.5473 9.91466 25.0923 10.295 24.5511 10.4914C24.5511 10.7085 24.4648 10.9166 24.3114 11.0701C24.1579 11.2236 23.9497 11.3098 23.7327 11.3098C23.5157 11.3098 23.3075 11.2236 23.154 11.0701C23.0006 10.9166 22.9143 10.7085 22.9143 10.4914C21.1058 9.82036 20.7375 7.36527 22.096 7.36527C22.313 7.36527 22.5212 7.45149 22.6746 7.60496C22.8281 7.75844 22.9143 7.96659 22.9143 8.18363C22.9143 8.34549 22.9623 8.50371 23.0523 8.63829C23.1422 8.77287 23.27 8.87776 23.4195 8.9397C23.5691 9.00164 23.7336 9.01785 23.8924 8.98627C24.0511 8.9547 24.1969 8.87675 24.3114 8.7623C24.4258 8.64785 24.5038 8.50204 24.5353 8.34329C24.5669 8.18454 24.5507 8.02 24.4888 7.87046C24.4268 7.72092 24.3219 7.59311 24.1874 7.50319C24.0528 7.41327 23.8946 7.36527 23.7327 7.36527C23.1569 7.3608 22.6011 7.15412 22.1623 6.78136C21.7235 6.40859 21.4296 5.89345 21.3321 5.326C21.2346 4.75854 21.3397 4.17487 21.6289 3.67701C21.9181 3.17916 22.3731 2.79879 22.9143 2.6024C22.9143 2.38535 23.0006 2.1772 23.154 2.02373C23.3075 1.87025 23.5157 1.78403 23.7327 1.78403C23.9497 1.78403 24.1579 1.87025 24.3114 2.02373C24.4648 2.1772 24.5511 2.38535 24.5511 2.6024C26.3596 3.27345 26.7279 5.72854 25.3694 5.72854C25.1524 5.72854 24.9442 5.64232 24.7908 5.48885C24.6373 5.33538 24.5511 5.12722 24.5511 4.91018C24.5511 4.74832 24.5031 4.5901 24.4131 4.45552C24.3232 4.32094 24.1954 4.21605 24.0459 4.15411C23.8963 4.09217 23.7318 4.07596 23.573 4.10754C23.4143 4.13912 23.2685 4.21706 23.154 4.33151C23.0396 4.44596 22.9616 4.59178 22.9301 4.75053C22.8985 4.90927 22.9147 5.07382 22.9766 5.22335C23.0386 5.37289 23.1435 5.5007 23.278 5.59062C23.4126 5.68055 23.5708 5.72854 23.7327 5.72854Z" fill="white"/>
<path d="M38.9204 27.1533C38.7247 26.7698 38.4552 26.4287 38.1274 26.1494C37.7997 25.8702 37.4201 25.6584 37.0103 25.5262C36.6006 25.3939 36.1688 25.3437 35.7396 25.3786C35.3105 25.4135 34.8924 25.5327 34.5094 25.7293L32.8727 26.5477C31.8718 25.2711 30.6136 24.2194 29.1797 23.4608C27.7458 22.7023 26.1684 22.254 24.5499 22.1449V14.7305C24.0058 14.7878 23.4572 14.7878 22.9132 14.7305V22.0958C20.7769 22.2432 18.7232 22.9797 16.98 24.2235C11.898 21.8585 12.078 22.0958 6.5459 22.8078V24.4445C13.2401 23.6261 10.9487 23.2333 22.7904 28.7818C23.1844 28.9663 23.4889 29.2997 23.637 29.7087C23.7851 30.1177 23.7646 30.5688 23.5801 30.9628C23.3957 31.3567 23.0622 31.6612 22.6532 31.8093C22.2442 31.9574 21.7931 31.937 21.3992 31.7525L14.9423 28.7245C14.7497 28.6489 14.5356 28.649 14.3431 28.7249C14.1506 28.8008 13.9939 28.9468 13.9047 29.1335C13.8155 29.3202 13.8004 29.5338 13.8623 29.7312C13.9242 29.9286 14.0587 30.0953 14.2385 30.1976L20.6954 33.2337C21.2054 33.4804 21.7717 33.5877 22.3366 33.5446C22.9015 33.5015 23.4449 33.3095 23.9116 32.9882L35.2541 27.186C35.4454 27.0871 35.6543 27.0269 35.8689 27.0088C36.0834 26.9906 36.2995 27.0149 36.5047 27.0803C36.7098 27.1456 36.9001 27.2508 37.0647 27.3897C37.2292 27.5286 37.3648 27.6985 37.4637 27.8898C37.5626 28.0811 37.6228 28.29 37.6409 28.5046C37.6591 28.7191 37.6348 28.9352 37.5694 29.1404C37.5041 29.3455 37.3989 29.5358 37.26 29.7004C37.1211 29.8649 36.9512 30.0005 36.7599 30.0994C22.4385 37.4156 22.5776 37.6447 20.2289 37.6447C19.0313 37.7069 17.8362 37.4825 16.7427 36.99C8.45269 33.2255 9.81935 33.5529 6.5459 33.5529V35.1896C7.93712 35.1896 8.65728 35.1078 9.63113 35.5579C16.6281 38.7331 17.3238 39.2814 19.7788 39.2814C23.2487 39.2814 22.8313 39.0523 37.5046 31.5561C38.2756 31.1593 38.8576 30.4729 39.1231 29.6475C39.3885 28.8221 39.3156 27.925 38.9204 27.1533ZM25.3683 30.4022C25.3927 29.7608 25.2282 29.1264 24.8949 28.5779C24.5617 28.0294 24.0746 27.5909 23.4942 27.317L18.7313 25.0746C20.7681 23.8965 23.1557 23.4762 25.4724 23.888C27.789 24.2998 29.8855 25.5172 31.3914 27.3251L25.3683 30.4022Z" fill="#424242"/>
<path d="M27.002 16.3672H28.6387V17.1856C28.6387 18.0537 28.2938 18.8863 27.6799 19.5002C27.066 20.1141 26.2334 20.459 25.3652 20.459H23.7285V19.6406C23.7285 18.7725 24.0734 17.9399 24.6873 17.326C25.3012 16.7121 26.1338 16.3672 27.002 16.3672Z" fill="white"/>
<path d="M23.7285 20.4589H22.0918C21.2236 20.4589 20.391 20.114 19.7771 19.5001C19.1632 18.8862 18.8183 18.0536 18.8183 17.1854V16.367H20.4551C21.3232 16.367 22.1559 16.7119 22.7697 17.3258C23.3836 17.9397 23.7285 18.7723 23.7285 19.6405V20.4589Z" fill="white"/>
</svg>
