<svg width="94" height="94" viewBox="0 0 94 94" fill="none" xmlns="http://www.w3.org/2000/svg">
<path d="M0 52.4688H11.6597V85.5048H0V52.4688Z" fill="white"/>
<path d="M56.3554 0C53.2806 0 50.2749 0.911776 47.7183 2.62003C45.1618 4.32828 43.1691 6.75628 41.9925 9.597C40.8158 12.4377 40.5079 15.5636 41.1078 18.5793C41.7077 21.595 43.1883 24.365 45.3625 26.5392C47.5367 28.7134 50.3068 30.1941 53.3225 30.7939C56.3382 31.3938 59.464 31.0859 62.3047 29.9093C65.1455 28.7326 67.5735 26.74 69.2817 24.1834C70.99 21.6268 71.9017 18.6211 71.9017 15.5463C71.9017 11.4232 70.2638 7.46891 67.3483 4.55341C64.4328 1.63791 60.4786 0 56.3554 0ZM56.3554 13.603C57.7226 13.6136 59.0426 14.1044 60.0846 14.9896C61.1266 15.8748 61.8243 17.098 62.0559 18.4455C62.2874 19.793 62.038 21.179 61.3512 22.3612C60.6644 23.5434 59.5839 24.4466 58.2987 24.913C58.2987 25.4284 58.094 25.9227 57.7295 26.2871C57.3651 26.6515 56.8708 26.8563 56.3554 26.8563C55.84 26.8563 55.3457 26.6515 54.9813 26.2871C54.6169 25.9227 54.4121 25.4284 54.4121 24.913C50.1175 23.3195 49.243 17.4896 52.4688 17.4896C52.9842 17.4896 53.4785 17.6944 53.8429 18.0588C54.2074 18.4232 54.4121 18.9175 54.4121 19.4329C54.4121 19.8173 54.5261 20.193 54.7396 20.5125C54.9532 20.8321 55.2567 21.0812 55.6118 21.2283C55.9668 21.3754 56.3576 21.4138 56.7345 21.3389C57.1115 21.2639 57.4578 21.0788 57.7295 20.807C58.0013 20.5352 58.1864 20.189 58.2614 19.812C58.3363 19.4351 58.2979 19.0443 58.1508 18.6892C58.0037 18.3342 57.7546 18.0307 57.4351 17.8171C57.1155 17.6036 56.7398 17.4896 56.3554 17.4896C54.9882 17.479 53.6683 16.9882 52.6263 16.103C51.5842 15.2179 50.8865 13.9946 50.655 12.6471C50.4234 11.2997 50.6729 9.91368 51.3597 8.73146C52.0464 7.54924 53.1269 6.64601 54.4121 6.17966C54.4121 5.66427 54.6169 5.16999 54.9813 4.80555C55.3457 4.44111 55.84 4.23637 56.3554 4.23637C56.8708 4.23637 57.3651 4.44111 57.7295 4.80555C58.094 5.16999 58.2987 5.66427 58.2987 6.17966C62.5934 7.77316 63.4679 13.603 60.242 13.603C59.7266 13.603 59.2323 13.3983 58.8679 13.0339C58.5034 12.6694 58.2987 12.1751 58.2987 11.6597C58.2987 11.2754 58.1847 10.8997 57.9712 10.5801C57.7577 10.2605 57.4542 10.0115 57.0991 9.86438C56.744 9.71729 56.3533 9.67881 55.9763 9.75379C55.5993 9.82878 55.2531 10.0139 54.9813 10.2856C54.7095 10.5574 54.5244 10.9037 54.4495 11.2806C54.3745 11.6576 54.413 12.0483 54.56 12.4034C54.7071 12.7585 54.9562 13.062 55.2758 13.2755C55.5954 13.4891 55.9711 13.603 56.3554 13.603Z" fill="white"/>
<path d="M92.423 64.4784C91.9582 63.5677 91.3184 62.7577 90.5401 62.0947C89.7617 61.4317 88.8603 60.9287 87.8873 60.6146C86.9144 60.3005 85.889 60.1815 84.8699 60.2642C83.8509 60.347 82.8581 60.63 81.9486 61.0971L78.062 63.0404C75.6854 60.009 72.6976 57.5115 69.2927 55.7103C65.8878 53.9091 62.142 52.8444 58.2988 52.5855V34.9792C57.0068 35.1153 55.7042 35.1153 54.4122 34.9792V52.4689C49.3393 52.8189 44.4626 54.5678 40.3233 57.5214C28.2555 51.9053 28.683 52.4689 15.5464 54.1595V58.0461C31.4425 56.1028 26.0013 55.17 54.1207 68.3455C55.0561 68.7836 55.7792 69.5754 56.1309 70.5466C56.4826 71.5178 56.4341 72.589 55.996 73.5244C55.5579 74.4599 54.7662 75.183 53.7949 75.5346C52.8237 75.8863 51.7526 75.8378 50.8171 75.3997L35.4846 68.2095C35.0272 68.0299 34.5188 68.0302 34.0616 68.2104C33.6045 68.3905 33.2325 68.7372 33.0207 69.1806C32.8089 69.6239 32.7729 70.1311 32.9199 70.5999C33.067 71.0688 33.3862 71.4645 33.8133 71.7074L49.1459 78.9171C50.357 79.5029 51.7016 79.7576 53.043 79.6552C54.3845 79.5528 55.6749 79.097 56.783 78.3341L83.717 64.5561C84.1713 64.3214 84.6673 64.1783 85.1768 64.1353C85.6864 64.0922 86.1994 64.1499 86.6866 64.3051C87.1738 64.4603 87.6257 64.7099 88.0164 65.0397C88.4072 65.3696 88.7291 65.7731 88.9639 66.2274C89.1987 66.6816 89.3417 67.1777 89.3848 67.6872C89.4278 68.1967 89.3701 68.7097 89.215 69.1969C89.0598 69.6841 88.8101 70.136 88.4803 70.5268C88.1505 70.9175 87.7469 71.2395 87.2927 71.4742C53.2851 88.8473 53.6155 89.3914 48.0382 89.3914C45.1943 89.5391 42.3563 89.0062 39.7598 87.8368C20.0743 78.8976 23.3195 79.6749 15.5464 79.6749V83.5615C18.85 83.5615 20.5601 83.3672 22.8726 84.436C39.4877 91.976 41.1395 93.278 46.9694 93.278C55.209 93.278 54.2179 92.7338 89.0611 74.9333C90.8918 73.9912 92.274 72.3612 92.9043 70.4012C93.5346 68.4411 93.3615 66.311 92.423 64.4784ZM60.2421 72.1933C60.3002 70.6703 59.9094 69.1639 59.1181 67.8613C58.3269 66.5587 57.1702 65.5175 55.7919 64.8671L44.482 59.5424C49.3185 56.7448 54.9881 55.7467 60.4892 56.7246C65.9903 57.7025 70.9687 60.5934 74.5447 64.8865L60.2421 72.1933Z" fill="#424242"/>
<path d="M64.1286 38.8658H68.0152V40.8091C68.0152 42.8706 67.1963 44.8478 65.7385 46.3055C64.2808 47.7633 62.3036 48.5822 60.2421 48.5822H56.3555V46.6389C56.3555 44.5774 57.1744 42.6002 58.6322 41.1425C60.0899 39.6847 62.0671 38.8658 64.1286 38.8658Z" fill="white"/>
<path d="M56.3555 48.5822H52.4689C50.4073 48.5822 48.4302 47.7633 46.9724 46.3055C45.5147 44.8478 44.6957 42.8707 44.6957 40.8091V38.8658H48.5823C50.6439 38.8658 52.621 39.6847 54.0788 41.1425C55.5365 42.6003 56.3555 44.5774 56.3555 46.639V48.5822Z" fill="white"/>
</svg>
