<svg width="500" height="500" viewBox="0 0 500 500" fill="none" xmlns="http://www.w3.org/2000/svg">
<g clip-path="url(#clip0_439_2)">
<path d="M550 -50H-50V550H550V-50Z" fill="white"/>
<mask id="mask0_439_2" style="mask-type:luminance" maskUnits="userSpaceOnUse" x="64" y="145" width="246" height="173">
<path d="M64.0105 145.333H309.333V317.333H64.0105V145.333Z" fill="white"/>
</mask>
<g mask="url(#mask0_439_2)">
<path fill-rule="evenodd" clip-rule="evenodd" d="M173.49 170.391C224.386 148.313 275.391 141.219 309.057 148.974V162.672C279.386 158.031 237.021 164.292 194.745 181.547C127.292 209.063 85.5575 254.135 101.552 282.198C117.542 310.26 185.208 310.703 252.662 283.188C265.318 278.026 277.063 272.24 287.698 266.073C273.396 275.703 256.99 284.708 238.953 292.531C162.714 325.599 86.2241 325.068 68.1512 291.344C50.0731 257.625 97.2449 203.458 173.49 170.391Z" fill="#1C475E"/>
</g>
<mask id="mask1_439_2" style="mask-type:luminance" maskUnits="userSpaceOnUse" x="102" y="169" width="335" height="171">
<path d="M102.667 169.333H436V339.37H102.667V169.333Z" fill="white"/>
</mask>
<g mask="url(#mask1_439_2)">
<path fill-rule="evenodd" clip-rule="evenodd" d="M102.922 331.453C215.646 334.995 318.229 309.594 392.781 204.156C388.01 197.26 383.24 190.37 378.474 183.474L435.703 169.682C435.526 191.25 435.349 212.823 435.172 234.391C427.932 229.089 420.688 223.781 413.448 218.479C332.078 342.219 221.094 350.813 102.922 331.453Z" fill="#38B6FF"/>
</g>
<mask id="mask2_439_2" style="mask-type:luminance" maskUnits="userSpaceOnUse" x="141" y="33" width="197" height="250">
<path d="M141.333 33.3698H337.333V282.667H141.333V33.3698Z" fill="white"/>
</mask>
<g mask="url(#mask2_439_2)">
<path fill-rule="evenodd" clip-rule="evenodd" d="M142.401 143.161H191.151V282.125H142.401V143.161ZM288.125 33.3698H336.875V224.354C320.922 233.448 304.672 242.052 288.125 250.182V33.3698ZM215.26 85.349H264.015V261.594C248.031 268.87 231.781 275.714 215.26 282.125V85.349Z" fill="#7ED957"/>
</g>
<path d="M86.2642 395.201C89.6392 394.143 90.9412 392.357 90.9412 389.998C90.9412 386.701 88.4204 383.654 79.1496 383.654C77.1965 383.654 73.3319 383.815 69.186 383.654V385.279C71.0558 385.44 71.8267 385.768 71.8267 387.232V405.248C71.8267 406.675 71.134 407.117 68.8579 407.284V408.909H81.7902C89.6808 408.909 93.6287 406.466 93.6287 401.956C93.6287 398.659 91.5142 396.263 86.2642 395.201ZM78.4985 385.362C79.0662 385.32 79.5558 385.32 80.4517 385.32C83.6235 385.32 84.8006 387.352 84.8006 389.753C84.8006 392.643 83.2173 394.268 78.4985 395.123V385.362ZM81.7902 407.081H80.6131C78.66 407.081 78.4985 406.466 78.4985 405.044V397.076L81.3058 396.544C85.41 396.544 86.9569 398.539 86.9569 401.789C86.9569 405.534 84.9621 407.081 81.7902 407.081Z" fill="#162A30"/>
<path d="M110.783 388.169C106.225 388.169 100.491 391.341 100.491 398.701C100.491 405.857 106.225 409.357 110.741 409.357C115.298 409.357 121.033 406.185 121.033 398.82C121.033 391.664 115.298 388.169 110.783 388.169ZM111.434 407.565C108.949 407.565 107.163 403.055 107.163 396.628C107.163 392.68 108.095 389.956 110.09 389.956C112.569 389.956 114.361 394.43 114.361 400.857C114.361 404.841 113.423 407.565 111.434 407.565Z" fill="#162A30"/>
<path d="M138.594 388.169C134.037 388.169 128.302 391.341 128.302 398.701C128.302 405.857 134.037 409.357 138.552 409.357C143.11 409.357 148.844 406.185 148.844 398.82C148.844 391.664 143.11 388.169 138.594 388.169ZM139.245 407.565C136.761 407.565 134.974 403.055 134.974 396.628C134.974 392.68 135.907 389.956 137.901 389.956C140.381 389.956 142.172 394.43 142.172 400.857C142.172 404.841 141.235 407.565 139.245 407.565Z" fill="#162A30"/>
<path d="M172.218 403.216C172.218 398.742 167.098 396.951 164.697 395.852C162.744 394.998 161.197 394.065 161.197 392.357C161.197 390.935 162.177 389.914 163.927 389.914C165.593 389.914 167.989 390.893 169.536 394.352H170.921L170.552 388.534H168.885C168.807 388.982 168.479 389.346 167.828 389.346C166.77 389.346 165.552 388.206 162.947 388.206C159.083 388.206 156.114 390.524 156.114 394.185C156.114 398.659 160.546 400.451 163.15 401.628C165.265 402.565 166.895 403.419 166.895 405.331C166.895 406.836 165.874 407.768 164.291 407.768C162.177 407.768 158.677 406.06 157.703 403.091H156.239L156.765 408.909H158.635C158.635 408.258 158.921 407.893 159.328 407.893C160.223 407.893 162.052 409.477 164.9 409.477C168.395 409.477 172.218 407.081 172.218 403.216Z" fill="#162A30"/>
<path d="M191.858 407.565V405.779C191.249 406.305 190.312 406.878 189.379 406.878C187.791 406.878 187.468 405.289 187.468 403.378V390.404H191.858V388.534H187.468V383.003H185.431C184.457 386.987 182.869 388.534 178.885 388.534V390.404H181.082V402.607C181.082 407.117 183.4 409.195 187.103 409.195C189.379 409.195 190.926 408.461 191.858 407.565Z" fill="#162A30"/>
<path d="M225.367 403.945C225.367 406.06 223.861 407.404 221.58 407.404C219.304 407.404 216.132 406.024 214.585 402.482H212.716L213.163 408.909H215.033C215.117 408.461 215.565 407.732 216.497 407.732C218.044 407.732 219.507 409.518 222.804 409.518C226.627 409.518 231.669 407.362 231.669 401.831C231.669 396.3 226.544 394.227 223.575 392.805C220.69 391.461 219.023 390.159 219.023 388.044C219.023 386.378 220.283 384.956 222.518 384.956C224.023 384.956 226.299 385.565 228.091 389.43H229.637L229.268 383.326H227.356C227.278 383.774 226.872 384.018 226.382 384.018C225.367 384.018 223.94 383.003 221.137 383.003C216.783 383.003 213.08 385.482 213.08 390.039C213.08 394.471 216.663 396.628 220.32 398.498C224.346 400.529 225.367 402.076 225.367 403.945Z" fill="#162A30"/>
<path d="M251.306 407.565V405.779C250.696 406.305 249.759 406.878 248.827 406.878C247.238 406.878 246.915 405.289 246.915 403.378V390.404H251.306V388.534H246.915V383.003H244.879C243.905 386.987 242.316 388.534 238.332 388.534V390.404H240.53V402.607C240.53 407.117 242.847 409.195 246.551 409.195C248.827 409.195 250.373 408.461 251.306 407.565Z" fill="#162A30"/>
<path d="M276.805 403.909V393.94C276.805 388.94 273.305 388.169 269.805 388.169C263.748 388.169 259.56 390.69 259.56 393.737C259.56 395.081 260.373 396.055 262.243 396.055C266.961 396.055 263.503 389.711 268.019 389.711C269.644 389.711 270.42 390.607 270.42 393.862V396.341C261.305 398.294 258.378 400.248 258.378 404.029C258.378 407.852 261.305 409.477 264.357 409.477C268.263 409.477 270.008 406.675 270.456 405.899H270.862L270.659 408.341C270.826 408.826 271.19 409.232 271.8 409.477C273.873 409.029 276.638 408.503 279.446 408.461V406.753C277.862 406.591 276.805 405.857 276.805 403.909ZM266.961 406.711C265.539 406.711 264.722 405.373 264.722 403.539C264.722 402.362 265.128 398.987 270.42 397.685V403.498C269.972 404.596 268.873 406.711 266.961 406.711Z" fill="#162A30"/>
<path d="M300.712 388.086C297.66 388.086 295.546 390.487 294.16 393.904H293.837L294.65 389.263C294.405 388.737 293.999 388.331 293.473 388.086C290.91 389.508 288.712 390.201 285.905 390.81V392.44C287.41 392.154 288.426 392.602 288.426 394.388V405.779C288.426 406.794 287.327 407.117 285.905 407.284V408.909C289.728 408.826 293.712 408.826 297.535 408.909V407.284C295.952 407.117 294.811 406.794 294.811 405.779V395.893C294.973 394.998 295.79 392.274 297.863 392.274C299.53 392.274 300.223 393.904 301.973 393.904C303.15 393.904 304.452 393.128 304.452 391.3C304.452 389.227 302.863 388.086 300.712 388.086Z" fill="#162A30"/>
<path d="M323.479 407.565V405.779C322.869 406.305 321.932 406.878 320.999 406.878C319.411 406.878 319.088 405.289 319.088 403.378V390.404H323.479V388.534H319.088V383.003H317.052C316.078 386.987 314.489 388.534 310.505 388.534V390.404H312.703V402.607C312.703 407.117 315.02 409.195 318.723 409.195C320.999 409.195 322.546 408.461 323.479 407.565Z" fill="#162A30"/>
<path d="M351.983 403.909V389.508C351.983 388.695 351.332 388.331 350.764 388.373L343.243 388.82V390.445L344.462 390.487C345.275 390.524 345.598 390.852 345.598 391.706V402.482C345.113 403.987 343.566 406.711 341.332 406.711C339.379 406.711 338.889 404.68 338.889 401.873V389.508C338.889 388.695 338.28 388.331 337.629 388.373L330.144 388.82V390.445L331.363 390.487C332.181 390.524 332.504 390.852 332.504 391.706V402.237C332.504 408.055 335.92 409.56 338.769 409.56C343.077 409.56 345.358 406.102 345.926 404.638H346.212L345.842 408.341C346.004 408.826 346.374 409.232 346.983 409.477C349.056 409.029 351.821 408.503 354.629 408.461V406.753C353.04 406.591 351.983 405.857 351.983 403.909Z" fill="#162A30"/>
<path d="M374.67 388.169C372.68 388.169 370.93 389.024 369.67 390.201C369.67 389.914 369.711 389.591 369.748 389.263C369.545 388.737 369.102 388.331 368.571 388.086C366.253 389.466 363.326 390.32 360.68 390.81V392.44C362.305 392.154 363.159 392.602 363.159 394.388V412.284C363.159 414.763 362.795 415.82 362.388 416.393C362.591 417.086 363.081 417.57 363.69 417.732C366.05 416.31 369.425 415.211 372.393 414.805V413.138C370.482 413.221 369.545 412.893 369.545 410.904V407.445C370.643 408.461 372.149 409.357 374.347 409.357C378.373 409.357 383.779 406.55 383.779 398.862C383.779 391.623 378.821 388.169 374.67 388.169ZM373.899 407.529C372.107 407.529 369.711 405.617 369.545 402.565V395.409C369.545 393.982 369.545 392.846 369.586 391.789C370.482 390.893 371.539 390.242 372.68 390.242C375.404 390.242 376.909 394.024 376.909 400.529C376.909 404.315 376.3 407.529 373.899 407.529Z" fill="#162A30"/>
<path d="M407.157 403.216C407.157 398.742 402.037 396.951 399.636 395.852C397.683 394.998 396.136 394.065 396.136 392.357C396.136 390.935 397.115 389.914 398.865 389.914C400.532 389.914 402.927 390.893 404.474 394.352H405.86L405.49 388.534H403.823C403.745 388.982 403.417 389.346 402.766 389.346C401.709 389.346 400.49 388.206 397.886 388.206C394.021 388.206 391.052 390.524 391.052 394.185C391.052 398.659 395.485 400.451 398.089 401.628C400.203 402.565 401.834 403.419 401.834 405.331C401.834 406.836 400.813 407.768 399.229 407.768C397.115 407.768 393.615 406.06 392.641 403.091H391.177L391.703 408.909H393.573C393.573 408.258 393.86 407.893 394.266 407.893C395.162 407.893 396.99 409.477 399.839 409.477C403.334 409.477 407.157 407.081 407.157 403.216Z" fill="#162A30"/>
</g>
<defs>
<clipPath id="clip0_439_2">
<rect width="500" height="500" fill="white"/>
</clipPath>
</defs>
</svg>
