<svg xmlns="http://www.w3.org/2000/svg" xmlns:xlink="http://www.w3.org/1999/xlink" width="500" zoomAndPan="magnify" viewBox="0 0 375 374.999991" height="500" preserveAspectRatio="xMidYMid meet" version="1.0"><defs><g/><clipPath id="aaf5212547"><path d="M 48.007812 109 L 232 109 L 232 238 L 48.007812 238 Z M 48.007812 109 " clip-rule="nonzero"/></clipPath><clipPath id="d4b24fc0b5"><path d="M 77 127 L 327 127 L 327 254.527344 L 77 254.527344 Z M 77 127 " clip-rule="nonzero"/></clipPath><clipPath id="e2176d167c"><path d="M 106 25.027344 L 253 25.027344 L 253 212 L 106 212 Z M 106 25.027344 " clip-rule="nonzero"/></clipPath></defs><rect x="-37.5" width="450" fill="#ffffff" y="-37.499999" height="449.999989" fill-opacity="1"/><rect x="-37.5" width="450" fill="#ffffff" y="-37.499999" height="449.999989" fill-opacity="1"/><rect x="-37.5" width="450" fill="#ffffff" y="-37.499999" height="449.999989" fill-opacity="1"/><g clip-path="url(#aaf5212547)"><path fill="#1c475e" d="M 130.117188 127.792969 C 168.289062 111.234375 206.542969 105.914062 231.792969 111.730469 L 231.792969 122.003906 C 209.539062 118.523438 177.765625 123.21875 146.058594 136.160156 C 95.46875 156.796875 64.167969 190.601562 76.164062 211.648438 C 88.15625 232.695312 138.90625 233.027344 189.496094 212.390625 C 198.988281 208.519531 207.796875 204.179688 215.773438 199.554688 C 205.046875 206.777344 192.742188 213.53125 179.214844 219.398438 C 122.035156 244.199219 64.667969 243.800781 51.113281 218.507812 C 37.554688 193.21875 72.933594 152.59375 130.117188 127.792969 Z M 130.117188 127.792969 " fill-opacity="1" fill-rule="evenodd"/></g><g clip-path="url(#d4b24fc0b5)"><path fill="#7ed957" d="M 77.191406 248.589844 C 161.734375 251.246094 238.671875 232.195312 294.585938 153.117188 C 291.007812 147.945312 287.429688 142.777344 283.855469 137.605469 L 326.777344 127.261719 C 326.644531 143.4375 326.511719 159.617188 326.378906 175.792969 C 320.949219 171.816406 315.515625 167.835938 310.085938 163.859375 C 249.058594 256.664062 165.820312 263.109375 77.191406 248.589844 Z M 77.191406 248.589844 " fill-opacity="1" fill-rule="evenodd"/></g><g clip-path="url(#e2176d167c)"><path fill="#7ed957" d="M 106.800781 107.371094 L 143.363281 107.371094 L 143.363281 211.59375 L 106.800781 211.59375 Z M 216.09375 25.027344 L 252.65625 25.027344 L 252.65625 168.265625 C 240.691406 175.085938 228.503906 181.539062 216.09375 187.636719 Z M 161.445312 64.011719 L 198.011719 64.011719 L 198.011719 196.195312 C 186.023438 201.652344 173.835938 206.785156 161.445312 211.59375 Z M 161.445312 64.011719 " fill-opacity="1" fill-rule="evenodd"/></g><g fill="#162a30" fill-opacity="1"><g transform="translate(59.881676, 317.931747)"><g><path d="M 13.816406 -10.28125 C 16.347656 -11.074219 17.324219 -12.414062 17.324219 -14.183594 C 17.324219 -16.65625 15.433594 -18.941406 8.480469 -18.941406 C 7.015625 -18.941406 4.117188 -18.820312 1.007812 -18.941406 L 1.007812 -17.722656 C 2.410156 -17.601562 2.988281 -17.355469 2.988281 -16.257812 L 2.988281 -2.746094 C 2.988281 -1.675781 2.46875 -1.34375 0.761719 -1.21875 L 0.761719 0 L 10.460938 0 C 16.378906 0 19.339844 -1.832031 19.339844 -5.214844 C 19.339844 -7.6875 17.753906 -9.484375 13.816406 -10.28125 Z M 7.992188 -17.660156 C 8.417969 -17.691406 8.785156 -17.691406 9.457031 -17.691406 C 11.835938 -17.691406 12.71875 -16.167969 12.71875 -14.367188 C 12.71875 -12.199219 11.53125 -10.980469 7.992188 -10.339844 Z M 10.460938 -1.371094 L 9.578125 -1.371094 C 8.113281 -1.371094 7.992188 -1.832031 7.992188 -2.898438 L 7.992188 -8.875 L 10.097656 -9.273438 C 13.175781 -9.273438 14.335938 -7.777344 14.335938 -5.339844 C 14.335938 -2.53125 12.839844 -1.371094 10.460938 -1.371094 Z M 10.460938 -1.371094 "/></g></g></g><g fill="#162a30" fill-opacity="1"><g transform="translate(83.454138, 317.931747)"><g><path d="M 8.632812 -15.554688 C 5.214844 -15.554688 0.914062 -13.175781 0.914062 -7.65625 C 0.914062 -2.289062 5.214844 0.335938 8.601562 0.335938 C 12.019531 0.335938 16.320312 -2.042969 16.320312 -7.566406 C 16.320312 -12.933594 12.019531 -15.554688 8.632812 -15.554688 Z M 9.121094 -1.007812 C 7.257812 -1.007812 5.917969 -4.390625 5.917969 -9.210938 C 5.917969 -12.171875 6.617188 -14.214844 8.113281 -14.214844 C 9.972656 -14.214844 11.316406 -10.859375 11.316406 -6.039062 C 11.316406 -3.050781 10.613281 -1.007812 9.121094 -1.007812 Z M 9.121094 -1.007812 "/></g></g></g><g fill="#162a30" fill-opacity="1"><g transform="translate(104.312794, 317.931747)"><g><path d="M 8.632812 -15.554688 C 5.214844 -15.554688 0.914062 -13.175781 0.914062 -7.65625 C 0.914062 -2.289062 5.214844 0.335938 8.601562 0.335938 C 12.019531 0.335938 16.320312 -2.042969 16.320312 -7.566406 C 16.320312 -12.933594 12.019531 -15.554688 8.632812 -15.554688 Z M 9.121094 -1.007812 C 7.257812 -1.007812 5.917969 -4.390625 5.917969 -9.210938 C 5.917969 -12.171875 6.617188 -14.214844 8.113281 -14.214844 C 9.972656 -14.214844 11.316406 -10.859375 11.316406 -6.039062 C 11.316406 -3.050781 10.613281 -1.007812 9.121094 -1.007812 Z M 9.121094 -1.007812 "/></g></g></g><g fill="#162a30" fill-opacity="1"><g transform="translate(125.171452, 317.931747)"><g><path d="M 12.992188 -4.269531 C 12.992188 -7.625 9.152344 -8.96875 7.351562 -9.792969 C 5.886719 -10.433594 4.726562 -11.132812 4.726562 -12.414062 C 4.726562 -13.480469 5.460938 -14.246094 6.773438 -14.246094 C 8.023438 -14.246094 9.820312 -13.511719 10.980469 -10.917969 L 12.019531 -10.917969 L 11.742188 -15.28125 L 10.492188 -15.28125 C 10.433594 -14.945312 10.1875 -14.671875 9.699219 -14.671875 C 8.90625 -14.671875 7.992188 -15.527344 6.039062 -15.527344 C 3.140625 -15.527344 0.914062 -13.789062 0.914062 -11.042969 C 0.914062 -7.6875 4.238281 -6.34375 6.191406 -5.460938 C 7.777344 -4.757812 9 -4.117188 9 -2.683594 C 9 -1.554688 8.234375 -0.855469 7.046875 -0.855469 C 5.460938 -0.855469 2.835938 -2.136719 2.105469 -4.363281 L 1.007812 -4.363281 L 1.402344 0 L 2.804688 0 C 2.804688 -0.488281 3.019531 -0.761719 3.324219 -0.761719 C 3.996094 -0.761719 5.367188 0.425781 7.503906 0.425781 C 10.125 0.425781 12.992188 -1.371094 12.992188 -4.269531 Z M 12.992188 -4.269531 "/></g></g></g><g fill="#162a30" fill-opacity="1"><g transform="translate(142.553985, 317.931747)"><g><path d="M 10.339844 -1.007812 L 10.339844 -2.347656 C 9.882812 -1.953125 9.179688 -1.523438 8.480469 -1.523438 C 7.289062 -1.523438 7.046875 -2.714844 7.046875 -4.148438 L 7.046875 -13.878906 L 10.339844 -13.878906 L 10.339844 -15.28125 L 7.046875 -15.28125 L 7.046875 -19.429688 L 5.519531 -19.429688 C 4.789062 -16.441406 3.597656 -15.28125 0.609375 -15.28125 L 0.609375 -13.878906 L 2.257812 -13.878906 L 2.257812 -4.726562 C 2.257812 -1.34375 3.996094 0.214844 6.773438 0.214844 C 8.480469 0.214844 9.640625 -0.335938 10.339844 -1.007812 Z M 10.339844 -1.007812 "/></g></g></g><g fill="#162a30" fill-opacity="1"><g transform="translate(157.436156, 317.931747)"><g/></g></g><g fill="#162a30" fill-opacity="1"><g transform="translate(167.774988, 317.931747)"><g><path d="M 10.25 -3.722656 C 10.25 -2.136719 9.121094 -1.128906 7.410156 -1.128906 C 5.703125 -1.128906 3.324219 -2.164062 2.164062 -4.820312 L 0.761719 -4.820312 L 1.097656 0 L 2.5 0 C 2.5625 -0.335938 2.898438 -0.882812 3.597656 -0.882812 C 4.757812 -0.882812 5.855469 0.457031 8.328125 0.457031 C 11.195312 0.457031 14.976562 -1.160156 14.976562 -5.308594 C 14.976562 -9.457031 11.132812 -11.011719 8.90625 -12.078125 C 6.742188 -13.085938 5.492188 -14.0625 5.492188 -15.648438 C 5.492188 -16.898438 6.4375 -17.964844 8.113281 -17.964844 C 9.242188 -17.964844 10.949219 -17.507812 12.292969 -14.609375 L 13.453125 -14.609375 L 13.175781 -19.1875 L 11.742188 -19.1875 C 11.683594 -18.851562 11.378906 -18.667969 11.011719 -18.667969 C 10.25 -18.667969 9.179688 -19.429688 7.078125 -19.429688 C 3.8125 -19.429688 1.035156 -17.570312 1.035156 -14.152344 C 1.035156 -10.828125 3.722656 -9.210938 6.464844 -7.808594 C 9.484375 -6.285156 10.25 -5.125 10.25 -3.722656 Z M 10.25 -3.722656 "/></g></g></g><g fill="#162a30" fill-opacity="1"><g transform="translate(187.139523, 317.931747)"><g><path d="M 10.339844 -1.007812 L 10.339844 -2.347656 C 9.882812 -1.953125 9.179688 -1.523438 8.480469 -1.523438 C 7.289062 -1.523438 7.046875 -2.714844 7.046875 -4.148438 L 7.046875 -13.878906 L 10.339844 -13.878906 L 10.339844 -15.28125 L 7.046875 -15.28125 L 7.046875 -19.429688 L 5.519531 -19.429688 C 4.789062 -16.441406 3.597656 -15.28125 0.609375 -15.28125 L 0.609375 -13.878906 L 2.257812 -13.878906 L 2.257812 -4.726562 C 2.257812 -1.34375 3.996094 0.214844 6.773438 0.214844 C 8.480469 0.214844 9.640625 -0.335938 10.339844 -1.007812 Z M 10.339844 -1.007812 "/></g></g></g><g fill="#162a30" fill-opacity="1"><g transform="translate(202.021694, 317.931747)"><g><path d="M 14.582031 -3.75 L 14.582031 -11.226562 C 14.582031 -14.976562 11.957031 -15.554688 9.332031 -15.554688 C 4.789062 -15.554688 1.648438 -13.664062 1.648438 -11.378906 C 1.648438 -10.371094 2.257812 -9.640625 3.660156 -9.640625 C 7.199219 -9.640625 4.605469 -14.398438 7.992188 -14.398438 C 9.210938 -14.398438 9.792969 -13.726562 9.792969 -11.285156 L 9.792969 -9.425781 C 2.957031 -7.960938 0.761719 -6.496094 0.761719 -3.660156 C 0.761719 -0.792969 2.957031 0.425781 5.246094 0.425781 C 8.175781 0.425781 9.484375 -1.675781 9.820312 -2.257812 L 10.125 -2.257812 L 9.972656 -0.425781 C 10.097656 -0.0625 10.371094 0.242188 10.828125 0.425781 C 12.382812 0.0898438 14.457031 -0.304688 16.5625 -0.335938 L 16.5625 -1.617188 C 15.375 -1.738281 14.582031 -2.289062 14.582031 -3.75 Z M 7.199219 -1.648438 C 6.132812 -1.648438 5.519531 -2.652344 5.519531 -4.027344 C 5.519531 -4.910156 5.824219 -7.441406 9.792969 -8.417969 L 9.792969 -4.058594 C 9.457031 -3.234375 8.632812 -1.648438 7.199219 -1.648438 Z M 7.199219 -1.648438 "/></g></g></g><g fill="#162a30" fill-opacity="1"><g transform="translate(222.819361, 317.931747)"><g><path d="M 11.714844 -15.617188 C 9.425781 -15.617188 7.839844 -13.816406 6.800781 -11.253906 L 6.558594 -11.253906 L 7.167969 -14.734375 C 6.984375 -15.128906 6.679688 -15.433594 6.285156 -15.617188 C 4.363281 -14.550781 2.714844 -14.03125 0.609375 -13.574219 L 0.609375 -12.351562 C 1.738281 -12.566406 2.5 -12.230469 2.5 -10.890625 L 2.5 -2.347656 C 2.5 -1.585938 1.675781 -1.34375 0.609375 -1.21875 L 0.609375 0 C 3.476562 -0.0625 6.464844 -0.0625 9.332031 0 L 9.332031 -1.21875 C 8.144531 -1.34375 7.289062 -1.585938 7.289062 -2.347656 L 7.289062 -9.761719 C 7.410156 -10.433594 8.023438 -12.476562 9.578125 -12.476562 C 10.828125 -12.476562 11.347656 -11.253906 12.660156 -11.253906 C 13.542969 -11.253906 14.519531 -11.835938 14.519531 -13.207031 C 14.519531 -14.761719 13.328125 -15.617188 11.714844 -15.617188 Z M 11.714844 -15.617188 "/></g></g></g><g fill="#162a30" fill-opacity="1"><g transform="translate(241.269125, 317.931747)"><g><path d="M 10.339844 -1.007812 L 10.339844 -2.347656 C 9.882812 -1.953125 9.179688 -1.523438 8.480469 -1.523438 C 7.289062 -1.523438 7.046875 -2.714844 7.046875 -4.148438 L 7.046875 -13.878906 L 10.339844 -13.878906 L 10.339844 -15.28125 L 7.046875 -15.28125 L 7.046875 -19.429688 L 5.519531 -19.429688 C 4.789062 -16.441406 3.597656 -15.28125 0.609375 -15.28125 L 0.609375 -13.878906 L 2.257812 -13.878906 L 2.257812 -4.726562 C 2.257812 -1.34375 3.996094 0.214844 6.773438 0.214844 C 8.480469 0.214844 9.640625 -0.335938 10.339844 -1.007812 Z M 10.339844 -1.007812 "/></g></g></g><g fill="#162a30" fill-opacity="1"><g transform="translate(256.151296, 317.931747)"><g><path d="M 16.835938 -3.75 L 16.835938 -14.550781 C 16.835938 -15.160156 16.347656 -15.433594 15.921875 -15.402344 L 10.28125 -15.066406 L 10.28125 -13.847656 L 11.195312 -13.816406 C 11.804688 -13.789062 12.046875 -13.542969 12.046875 -12.902344 L 12.046875 -4.820312 C 11.683594 -3.691406 10.523438 -1.648438 8.847656 -1.648438 C 7.382812 -1.648438 7.015625 -3.171875 7.015625 -5.277344 L 7.015625 -14.550781 C 7.015625 -15.160156 6.558594 -15.433594 6.070312 -15.402344 L 0.457031 -15.066406 L 0.457031 -13.847656 L 1.371094 -13.816406 C 1.984375 -13.789062 2.226562 -13.542969 2.226562 -12.902344 L 2.226562 -5.003906 C 2.226562 -0.640625 4.789062 0.488281 6.925781 0.488281 C 10.15625 0.488281 11.867188 -2.105469 12.292969 -3.203125 L 12.507812 -3.203125 L 12.230469 -0.425781 C 12.351562 -0.0625 12.628906 0.242188 13.085938 0.425781 C 14.640625 0.0898438 16.714844 -0.304688 18.820312 -0.335938 L 18.820312 -1.617188 C 17.628906 -1.738281 16.835938 -2.289062 16.835938 -3.75 Z M 16.835938 -3.75 "/></g></g></g><g fill="#162a30" fill-opacity="1"><g transform="translate(279.052936, 317.931747)"><g><path d="M 10.949219 -15.554688 C 9.457031 -15.554688 8.144531 -14.914062 7.199219 -14.03125 C 7.199219 -14.246094 7.230469 -14.488281 7.257812 -14.734375 C 7.105469 -15.128906 6.773438 -15.433594 6.375 -15.617188 C 4.636719 -14.582031 2.441406 -13.941406 0.457031 -13.574219 L 0.457031 -12.351562 C 1.675781 -12.566406 2.316406 -12.230469 2.316406 -10.890625 L 2.316406 2.53125 C 2.316406 4.390625 2.042969 5.183594 1.738281 5.613281 C 1.890625 6.132812 2.257812 6.496094 2.714844 6.617188 C 4.484375 5.550781 7.015625 4.726562 9.242188 4.421875 L 9.242188 3.171875 C 7.808594 3.234375 7.105469 2.988281 7.105469 1.496094 L 7.105469 -1.097656 C 7.929688 -0.335938 9.058594 0.335938 10.707031 0.335938 C 13.726562 0.335938 17.78125 -1.769531 17.78125 -7.535156 C 17.78125 -12.964844 14.0625 -15.554688 10.949219 -15.554688 Z M 10.371094 -1.035156 C 9.027344 -1.035156 7.230469 -2.46875 7.105469 -4.757812 L 7.105469 -10.125 C 7.105469 -11.195312 7.105469 -12.046875 7.136719 -12.839844 C 7.808594 -13.511719 8.601562 -14 9.457031 -14 C 11.5 -14 12.628906 -11.164062 12.628906 -6.285156 C 12.628906 -3.445312 12.171875 -1.035156 10.371094 -1.035156 Z M 10.371094 -1.035156 "/></g></g></g><g fill="#162a30" fill-opacity="1"><g transform="translate(301.375231, 317.931747)"><g><path d="M 12.992188 -4.269531 C 12.992188 -7.625 9.152344 -8.96875 7.351562 -9.792969 C 5.886719 -10.433594 4.726562 -11.132812 4.726562 -12.414062 C 4.726562 -13.480469 5.460938 -14.246094 6.773438 -14.246094 C 8.023438 -14.246094 9.820312 -13.511719 10.980469 -10.917969 L 12.019531 -10.917969 L 11.742188 -15.28125 L 10.492188 -15.28125 C 10.433594 -14.945312 10.1875 -14.671875 9.699219 -14.671875 C 8.90625 -14.671875 7.992188 -15.527344 6.039062 -15.527344 C 3.140625 -15.527344 0.914062 -13.789062 0.914062 -11.042969 C 0.914062 -7.6875 4.238281 -6.34375 6.191406 -5.460938 C 7.777344 -4.757812 9 -4.117188 9 -2.683594 C 9 -1.554688 8.234375 -0.855469 7.046875 -0.855469 C 5.460938 -0.855469 2.835938 -2.136719 2.105469 -4.363281 L 1.007812 -4.363281 L 1.402344 0 L 2.804688 0 C 2.804688 -0.488281 3.019531 -0.761719 3.324219 -0.761719 C 3.996094 -0.761719 5.367188 0.425781 7.503906 0.425781 C 10.125 0.425781 12.992188 -1.371094 12.992188 -4.269531 Z M 12.992188 -4.269531 "/></g></g></g></svg>